<svg width="143" height="74" viewBox="0 0 143 74" fill="none" xmlns="http://www.w3.org/2000/svg">
<rect width="143" height="74" fill="url(#paint0_linear_1_4)"/>
<path d="M19.674 55C19.386 55 19.206 54.874 19.134 54.622C19.062 54.37 19.08 53.884 19.188 53.164C19.44 51.544 19.818 49.6 20.322 47.332C20.826 45.028 21.42 42.598 22.104 40.042C22.788 37.486 23.508 34.93 24.264 32.374C25.056 29.818 25.866 27.442 26.694 25.246C27.522 23.014 28.314 21.16 29.07 19.684C29.286 19.36 29.466 19.108 29.61 18.928C29.79 18.748 30.006 18.658 30.258 18.658H35.388C35.676 18.766 35.91 18.892 36.09 19.036C36.27 19.144 36.45 19.36 36.63 19.684C37.386 21.16 38.178 23.014 39.006 25.246C39.834 27.442 40.644 29.818 41.436 32.374C42.228 34.93 42.966 37.504 43.65 40.096C44.334 42.652 44.928 45.082 45.432 47.386C45.936 49.654 46.296 51.58 46.512 53.164C46.656 53.884 46.692 54.37 46.62 54.622C46.548 54.874 46.35 55 46.026 55H40.464C40.176 55 39.978 54.928 39.87 54.784C39.762 54.604 39.636 54.172 39.492 53.488C39.348 52.66 39.15 51.688 38.898 50.572C38.682 49.42 38.484 48.412 38.304 47.548C38.268 47.296 38.214 47.152 38.142 47.116C38.07 47.044 37.908 47.008 37.656 47.008H28.044C27.792 47.044 27.648 47.08 27.612 47.116C27.576 47.152 27.522 47.314 27.45 47.602C27.27 48.43 27.054 49.42 26.802 50.572C26.586 51.688 26.388 52.678 26.208 53.542C26.1 54.19 25.992 54.604 25.884 54.784C25.776 54.928 25.578 55 25.29 55H19.674ZM29.556 41.554H36.144C36.396 41.554 36.54 41.518 36.576 41.446C36.648 41.338 36.648 41.158 36.576 40.906C36.108 39.07 35.604 37.162 35.064 35.182C34.524 33.166 33.966 31.348 33.39 29.728C33.318 29.404 33.192 29.242 33.012 29.242H32.634C32.49 29.242 32.364 29.404 32.256 29.728C31.968 30.664 31.626 31.762 31.23 33.022C30.87 34.282 30.51 35.596 30.15 36.964C29.79 38.332 29.448 39.664 29.124 40.96C29.088 41.176 29.088 41.338 29.124 41.446C29.16 41.518 29.304 41.554 29.556 41.554ZM61.2435 55.432C58.1115 55.432 55.6815 54.856 53.9535 53.704C52.2615 52.516 51.0735 50.932 50.3895 48.952C49.7415 46.936 49.4175 44.65 49.4175 42.094C49.4175 39.61 49.7955 37.396 50.5515 35.452C51.3075 33.472 52.5315 31.924 54.2235 30.808C55.9515 29.656 58.2915 29.08 61.2435 29.08C64.2315 29.08 66.5715 29.656 68.2635 30.808C69.9915 31.924 71.2155 33.472 71.9355 35.452C72.6915 37.396 73.0695 39.61 73.0695 42.094C73.0695 44.614 72.7455 46.882 72.0975 48.898C71.4495 50.878 70.2615 52.462 68.5335 53.65C66.8415 54.838 64.4115 55.432 61.2435 55.432ZM61.1895 50.14C62.9535 50.14 64.1955 49.456 64.9155 48.088C65.6355 46.72 65.9955 44.794 65.9955 42.31C65.9955 39.826 65.5995 37.954 64.8075 36.694C64.0515 35.398 62.8455 34.75 61.1895 34.75C59.5695 34.75 58.3635 35.398 57.5715 36.694C56.8155 37.954 56.4375 39.826 56.4375 42.31C56.4375 44.83 56.7795 46.774 57.4635 48.142C58.1835 49.474 59.4255 50.14 61.1895 50.14ZM84.3517 55C83.9197 55 83.7037 54.784 83.7037 54.352V26.812C83.7037 26.524 83.5777 26.434 83.3257 26.542L78.7357 29.08C78.2317 29.332 77.8717 29.26 77.6557 28.864L75.6037 25.354C75.3517 24.886 75.4777 24.508 75.9817 24.22L85.2697 19.036C85.5217 18.892 85.7197 18.802 85.8637 18.766C86.0077 18.694 86.2057 18.658 86.4577 18.658H90.1297C90.5617 18.658 90.7777 18.892 90.7777 19.36V54.352C90.7777 54.784 90.5617 55 90.1297 55H84.3517ZM98.0326 55C97.8886 55 97.8166 54.928 97.8166 54.784C97.8166 48.772 97.8166 42.778 97.8166 36.802C97.8166 30.826 97.8166 24.85 97.8166 18.874C97.8166 18.73 97.8886 18.658 98.0326 18.658C98.1406 18.658 98.5186 18.658 99.1666 18.658C99.8146 18.658 100.553 18.658 101.381 18.658C102.209 18.658 102.947 18.658 103.595 18.658C104.243 18.658 104.621 18.658 104.729 18.658C104.873 18.658 104.945 18.73 104.945 18.874C104.945 20.242 104.945 21.466 104.945 22.546C104.945 23.626 104.945 24.652 104.945 25.624C104.945 26.596 104.945 27.622 104.945 28.702C104.945 29.782 104.945 31.006 104.945 32.374C104.945 32.482 104.963 32.59 104.999 32.698C105.035 32.77 105.089 32.806 105.161 32.806H106.241C106.349 32.806 106.457 32.752 106.565 32.644C106.673 32.5 106.763 32.356 106.835 32.212C107.555 30.844 108.185 29.656 108.725 28.648C109.265 27.64 109.787 26.686 110.291 25.786C110.795 24.886 111.317 23.932 111.857 22.924C112.397 21.88 113.027 20.674 113.747 19.306C113.891 19.054 114.035 18.892 114.179 18.82C114.359 18.712 114.539 18.658 114.719 18.658C114.827 18.658 115.187 18.658 115.799 18.658C116.447 18.658 117.167 18.658 117.959 18.658C118.751 18.658 119.471 18.658 120.119 18.658C120.767 18.658 121.145 18.658 121.253 18.658C121.613 18.658 121.757 18.784 121.685 19.036C121.649 19.288 121.469 19.756 121.145 20.44C120.101 22.132 119.129 23.752 118.229 25.3C117.365 26.848 116.519 28.432 115.691 30.052C114.863 31.636 114.035 33.382 113.207 35.29C113.063 35.614 112.973 35.902 112.937 36.154C112.901 36.406 112.883 36.658 112.883 36.91C112.883 37.63 113.009 38.422 113.261 39.286C113.513 40.15 113.837 40.996 114.233 41.824C114.665 42.652 115.151 43.444 115.691 44.2C116.267 44.956 116.861 45.622 117.473 46.198C118.193 46.882 119.003 47.458 119.903 47.926C120.839 48.358 121.937 48.574 123.197 48.574C123.269 48.574 123.359 48.592 123.467 48.628C123.575 48.664 123.629 48.718 123.629 48.79V54.73C123.629 54.91 123.575 55 123.467 55C121.199 55 119.273 54.802 117.689 54.406C116.105 54.01 114.575 53.236 113.099 52.084C112.415 51.544 111.767 50.932 111.155 50.248C110.579 49.528 110.003 48.736 109.427 47.872C108.887 47.008 108.401 46.108 107.969 45.172C107.537 44.2 107.159 43.192 106.835 42.148C106.763 41.86 106.655 41.662 106.511 41.554C106.367 41.446 106.277 41.392 106.241 41.392C106.025 41.392 105.827 41.392 105.647 41.392C105.503 41.392 105.341 41.392 105.161 41.392C105.161 41.392 105.125 41.41 105.053 41.446C104.981 41.482 104.945 41.59 104.945 41.77C104.945 43.174 104.945 44.38 104.945 45.388C104.945 46.396 104.945 47.368 104.945 48.304C104.945 49.204 104.945 50.158 104.945 51.166C104.945 52.174 104.945 53.38 104.945 54.784C104.945 54.928 104.873 55 104.729 55C104.621 55 104.243 55 103.595 55C102.947 55 102.209 55 101.381 55C100.553 55 99.8146 55 99.1666 55C98.5186 55 98.1406 55 98.0326 55Z" fill="#2C2031"/>
<defs>
<linearGradient id="paint0_linear_1_4" x1="1.31136e-08" y1="37.4568" x2="143.001" y2="36.6445" gradientUnits="userSpaceOnUse">
<stop stop-color="#ECE6EF"/>
<stop offset="1" stop-color="#878489" stop-opacity="0"/>
</linearGradient>
</defs>
</svg>
