<svg width="371" height="613" viewBox="0 0 371 613" fill="none" xmlns="http://www.w3.org/2000/svg">
<mask id="path-1-outside-1_6_9" maskUnits="userSpaceOnUse" x="37" y="112" width="296" height="382" fill="black">
<rect fill="white" x="37" y="112" width="296" height="382"/>
<path d="M65 478C61.3333 478 58.5 477 56.5 475C54.5 472.667 53.5 469.833 53.5 466.5V140C53.5 136.333 54.5 133.5 56.5 131.5C58.5 129.167 61.3333 128 65 128H202C227 128 247.333 132.167 263 140.5C279 148.5 290.667 159.5 298 173.5C305.667 187.5 309.5 203.167 309.5 220.5C309.5 234.167 307.167 246 302.5 256C298.167 265.667 292.667 273.667 286 280C279.333 286 272.833 290.667 266.5 294C279.5 300.333 291 310.667 301 325C311.333 339.333 316.5 356.667 316.5 377C316.5 395.333 312.333 412.167 304 427.5C295.667 442.833 283.167 455.167 266.5 464.5C250.167 473.5 229.833 478 205.5 478H65ZM102.5 437.5H199C220.667 437.5 237.333 431.667 249 420C260.667 408.333 266.5 394 266.5 377C266.5 359.333 260.667 344.833 249 333.5C237.333 321.833 220.667 316 199 316H102.5V437.5ZM102.5 276H194.5C215.833 276 232 271.167 243 261.5C254 251.5 259.5 238 259.5 221C259.5 204 254 191 243 182C232 173 215.833 168.5 194.5 168.5H102.5V276Z"/>
</mask>
<path d="M65 478C61.3333 478 58.5 477 56.5 475C54.5 472.667 53.5 469.833 53.5 466.5V140C53.5 136.333 54.5 133.5 56.5 131.5C58.5 129.167 61.3333 128 65 128H202C227 128 247.333 132.167 263 140.5C279 148.5 290.667 159.5 298 173.5C305.667 187.5 309.5 203.167 309.5 220.5C309.5 234.167 307.167 246 302.5 256C298.167 265.667 292.667 273.667 286 280C279.333 286 272.833 290.667 266.5 294C279.5 300.333 291 310.667 301 325C311.333 339.333 316.5 356.667 316.5 377C316.5 395.333 312.333 412.167 304 427.5C295.667 442.833 283.167 455.167 266.5 464.5C250.167 473.5 229.833 478 205.5 478H65ZM102.5 437.5H199C220.667 437.5 237.333 431.667 249 420C260.667 408.333 266.5 394 266.5 377C266.5 359.333 260.667 344.833 249 333.5C237.333 321.833 220.667 316 199 316H102.5V437.5ZM102.5 276H194.5C215.833 276 232 271.167 243 261.5C254 251.5 259.5 238 259.5 221C259.5 204 254 191 243 182C232 173 215.833 168.5 194.5 168.5H102.5V276Z" fill="#ECE6EF"/>
<path d="M56.5 475L44.3519 485.413L44.7518 485.879L45.1863 486.314L56.5 475ZM56.5 131.5L67.8137 142.814L68.2482 142.379L68.6481 141.913L56.5 131.5ZM263 140.5L255.486 154.626L255.664 154.721L255.845 154.811L263 140.5ZM298 173.5L283.827 180.924L283.895 181.055L283.966 181.185L298 173.5ZM302.5 256L288.001 249.234L287.95 249.344L287.9 249.455L302.5 256ZM286 280L296.703 291.893L296.864 291.748L297.02 291.6L286 280ZM266.5 294L259.048 279.841L231.099 294.551L259.492 308.384L266.5 294ZM301 325L287.878 334.155L287.949 334.256L288.021 334.357L301 325ZM304 427.5L289.942 419.86L289.942 419.86L304 427.5ZM266.5 464.5L274.222 478.513L274.27 478.487L274.318 478.46L266.5 464.5ZM102.5 437.5H86.5V453.5H102.5V437.5ZM249 420L237.686 408.686L249 420ZM249 333.5L237.686 344.814L237.768 344.896L237.851 344.976L249 333.5ZM102.5 316V300H86.5V316H102.5ZM102.5 276H86.5V292H102.5V276ZM243 261.5L253.562 273.519L253.663 273.43L253.763 273.339L243 261.5ZM102.5 168.5V152.5H86.5V168.5H102.5ZM65 462C64.5945 462 64.8266 461.942 65.4501 462.162C66.1429 462.407 67.0199 462.893 67.8137 463.686L45.1863 486.314C51.0023 492.13 58.402 494 65 494V462ZM68.6481 464.587C68.9038 464.886 69.1653 465.311 69.3378 465.8C69.5039 466.27 69.5 466.55 69.5 466.5H37.5C37.5 473.304 39.6484 479.925 44.3519 485.413L68.6481 464.587ZM69.5 466.5V140H37.5V466.5H69.5ZM69.5 140C69.5 139.594 69.5579 139.827 69.3378 140.45C69.0933 141.143 68.6075 142.02 67.8137 142.814L45.1863 120.186C39.3703 126.002 37.5 133.402 37.5 140H69.5ZM68.6481 141.913C68.0088 142.658 67.1439 143.288 66.217 143.67C65.3611 144.022 64.8543 144 65 144V112C57.6546 112 49.9828 114.518 44.3519 121.087L68.6481 141.913ZM65 144H202V112H65V144ZM202 144C225.389 144 242.884 147.923 255.486 154.626L270.514 126.374C251.782 116.411 228.611 112 202 112V144ZM255.845 154.811C269.253 161.515 278.253 170.284 283.827 180.924L312.173 166.076C303.08 148.716 288.747 135.485 270.155 126.189L255.845 154.811ZM283.966 181.185C290.234 192.63 293.5 205.616 293.5 220.5H325.5C325.5 200.717 321.1 182.37 312.034 165.815L283.966 181.185ZM293.5 220.5C293.5 232.372 291.472 241.795 288.001 249.234L316.999 262.766C322.861 250.205 325.5 235.961 325.5 220.5H293.5ZM287.9 249.455C284.291 257.506 279.923 263.704 274.98 268.4L297.02 291.6C305.41 283.63 312.042 273.827 317.1 262.545L287.9 249.455ZM275.297 268.107C269.379 273.433 263.956 277.258 259.048 279.841L273.952 308.159C281.711 304.075 289.288 298.567 296.703 291.893L275.297 268.107ZM259.492 308.384C269.579 313.298 279.114 321.593 287.878 334.155L314.122 315.845C302.886 299.741 289.421 287.369 273.508 279.616L259.492 308.384ZM288.021 334.357C296.104 345.569 300.5 359.5 300.5 377H332.5C332.5 353.833 326.563 333.098 313.979 315.643L288.021 334.357ZM300.5 377C300.5 392.804 296.936 406.991 289.942 419.86L318.058 435.14C327.731 417.342 332.5 397.863 332.5 377H300.5ZM289.942 419.86C283.186 432.291 272.973 442.537 258.682 450.54L274.318 478.46C293.361 467.796 308.147 453.376 318.058 435.14L289.942 419.86ZM258.778 450.487C245.423 457.846 227.932 462 205.5 462V494C231.735 494 254.911 489.154 274.222 478.513L258.778 450.487ZM205.5 462H65V494H205.5V462ZM102.5 453.5H199V421.5H102.5V453.5ZM199 453.5C223.53 453.5 244.794 446.833 260.314 431.314L237.686 408.686C229.873 416.5 217.804 421.5 199 421.5V453.5ZM260.314 431.314C275.081 416.546 282.5 398.099 282.5 377H250.5C250.5 389.901 246.252 400.121 237.686 408.686L260.314 431.314ZM282.5 377C282.5 355.422 275.201 336.646 260.149 322.024L237.851 344.976C246.133 353.021 250.5 363.245 250.5 377H282.5ZM260.314 322.186C244.794 306.667 223.53 300 199 300V332C217.804 332 229.873 337 237.686 344.814L260.314 322.186ZM199 300H102.5V332H199V300ZM86.5 316V437.5H118.5V316H86.5ZM102.5 292H194.5V260H102.5V292ZM194.5 292C217.979 292 238.556 286.706 253.562 273.519L232.438 249.481C225.444 255.627 213.688 260 194.5 260V292ZM253.763 273.339C268.592 259.858 275.5 241.794 275.5 221H243.5C243.5 234.206 239.408 243.142 232.237 249.661L253.763 273.339ZM275.5 221C275.5 200.244 268.584 182.259 253.132 169.617L232.868 194.383C239.416 199.741 243.5 207.756 243.5 221H275.5ZM253.132 169.617C238.148 157.357 217.75 152.5 194.5 152.5V184.5C213.917 184.5 225.852 188.643 232.868 194.383L253.132 169.617ZM194.5 152.5H102.5V184.5H194.5V152.5ZM86.5 168.5V276H118.5V168.5H86.5Z" fill="#161018" mask="url(#path-1-outside-1_6_9)"/>
</svg>
