<svg width="371" height="613" viewBox="0 0 371 613" fill="none" xmlns="http://www.w3.org/2000/svg">
<mask id="path-1-outside-1_6_6" maskUnits="userSpaceOnUse" x="37" y="112" width="302" height="382" fill="black">
<rect fill="white" x="37" y="112" width="302" height="382"/>
<path d="M65 478C61.3333 478 58.5 477 56.5 475C54.5 472.667 53.5 469.833 53.5 466.5V140C53.5 136.333 54.5 133.5 56.5 131.5C58.5 129.167 61.3333 128 65 128H178.5C212.833 128 240.5 133.167 261.5 143.5C282.5 153.833 297.833 169.167 307.5 189.5C317.167 209.5 322.167 234.167 322.5 263.5C322.833 278.5 323 291.667 323 303C323 314.333 322.833 327.333 322.5 342C321.833 372.667 316.667 398.167 307 418.5C297.667 438.5 282.667 453.5 262 463.5C241.667 473.167 214.667 478 181 478H65ZM102.5 435.5H178.5C201.5 435.5 219.833 432.333 233.5 426C247.167 419.667 257 409.5 263 395.5C269.333 381.5 272.667 363 273 340C273.667 330 274 321.333 274 314C274 306.333 274 298.833 274 291.5C274 283.833 273.667 275.167 273 265.5C272.333 233.167 264.667 209.333 250 194C235.333 178.333 210.667 170.5 176 170.5H102.5V435.5Z"/>
</mask>
<path d="M65 478C61.3333 478 58.5 477 56.5 475C54.5 472.667 53.5 469.833 53.5 466.5V140C53.5 136.333 54.5 133.5 56.5 131.5C58.5 129.167 61.3333 128 65 128H178.5C212.833 128 240.5 133.167 261.5 143.5C282.5 153.833 297.833 169.167 307.5 189.5C317.167 209.5 322.167 234.167 322.5 263.5C322.833 278.5 323 291.667 323 303C323 314.333 322.833 327.333 322.5 342C321.833 372.667 316.667 398.167 307 418.5C297.667 438.5 282.667 453.5 262 463.5C241.667 473.167 214.667 478 181 478H65ZM102.5 435.5H178.5C201.5 435.5 219.833 432.333 233.5 426C247.167 419.667 257 409.5 263 395.5C269.333 381.5 272.667 363 273 340C273.667 330 274 321.333 274 314C274 306.333 274 298.833 274 291.5C274 283.833 273.667 275.167 273 265.5C272.333 233.167 264.667 209.333 250 194C235.333 178.333 210.667 170.5 176 170.5H102.5V435.5Z" fill="#ECE6EF"/>
<path d="M56.5 475L44.3519 485.413L44.7518 485.879L45.1863 486.314L56.5 475ZM56.5 131.5L67.8137 142.814L68.2482 142.379L68.6481 141.913L56.5 131.5ZM261.5 143.5L254.436 157.856L254.436 157.856L261.5 143.5ZM307.5 189.5L293.05 196.37L293.072 196.416L293.094 196.463L307.5 189.5ZM322.5 263.5L306.501 263.682L306.502 263.769L306.504 263.855L322.5 263.5ZM322.5 342L306.504 341.636L306.504 341.644L306.504 341.652L322.5 342ZM307 418.5L292.55 411.63L292.525 411.682L292.501 411.734L307 418.5ZM262 463.5L268.87 477.95L268.919 477.927L268.969 477.903L262 463.5ZM102.5 435.5H86.5V451.5H102.5V435.5ZM263 395.5L248.422 388.905L248.357 389.051L248.294 389.197L263 395.5ZM273 340L257.035 338.936L257.008 339.351L257.002 339.768L273 340ZM273 265.5L257.003 265.83L257.011 266.216L257.038 266.601L273 265.5ZM250 194L238.32 204.935L238.378 204.997L238.438 205.06L250 194ZM102.5 170.5V154.5H86.5V170.5H102.5ZM65 462C64.5945 462 64.8266 461.942 65.4501 462.162C66.1429 462.407 67.0199 462.893 67.8137 463.686L45.1863 486.314C51.0023 492.13 58.402 494 65 494V462ZM68.6481 464.587C68.9038 464.886 69.1653 465.311 69.3378 465.8C69.5039 466.27 69.5 466.55 69.5 466.5H37.5C37.5 473.304 39.6484 479.925 44.3519 485.413L68.6481 464.587ZM69.5 466.5V140H37.5V466.5H69.5ZM69.5 140C69.5 139.594 69.5579 139.827 69.3378 140.45C69.0933 141.143 68.6075 142.02 67.8137 142.814L45.1863 120.186C39.3703 126.002 37.5 133.402 37.5 140H69.5ZM68.6481 141.913C68.0088 142.658 67.1439 143.288 66.217 143.67C65.3611 144.022 64.8543 144 65 144V112C57.6546 112 49.9828 114.518 44.3519 121.087L68.6481 141.913ZM65 144H178.5V112H65V144ZM178.5 144C211.439 144 236.417 148.99 254.436 157.856L268.564 129.144C244.583 117.344 214.228 112 178.5 112V144ZM254.436 157.856C272.339 166.665 284.996 179.429 293.05 196.37L321.95 182.63C310.671 158.904 292.661 141.001 268.564 129.144L254.436 157.856ZM293.094 196.463C301.466 213.783 306.186 235.979 306.501 263.682L338.499 263.318C338.147 232.355 332.868 205.217 321.906 182.537L293.094 196.463ZM306.504 263.855C306.835 278.772 307 291.816 307 303H339C339 291.517 338.831 278.228 338.496 263.145L306.504 263.855ZM307 303C307 314.183 306.835 327.058 306.504 341.636L338.496 342.364C338.831 327.609 339 314.484 339 303H307ZM306.504 341.652C305.869 370.832 300.962 393.935 292.55 411.63L321.45 425.37C332.371 402.398 337.797 374.502 338.496 342.348L306.504 341.652ZM292.501 411.734C284.791 428.255 272.528 440.631 255.031 449.097L268.969 477.903C292.805 466.369 310.542 448.745 321.499 425.266L292.501 411.734ZM255.13 449.05C237.739 457.318 213.366 462 181 462V494C215.968 494 245.594 489.016 268.87 477.95L255.13 449.05ZM181 462H65V494H181V462ZM102.5 451.5H178.5V419.5H102.5V451.5ZM178.5 451.5C202.716 451.5 223.637 448.205 240.227 440.517L226.773 411.483C216.029 416.462 200.284 419.5 178.5 419.5V451.5ZM240.227 440.517C257.52 432.503 270.17 419.386 277.706 401.803L248.294 389.197C243.83 399.614 236.813 406.83 226.773 411.483L240.227 440.517ZM277.578 402.095C285.151 385.354 288.648 364.436 288.998 340.232L257.002 339.768C256.686 361.564 253.516 377.646 248.422 388.905L277.578 402.095ZM288.965 341.064C289.647 330.828 290 321.79 290 314H258C258 320.877 257.686 329.172 257.035 338.936L288.965 341.064ZM290 314C290 313.985 290 313.97 290 313.955C290 313.94 290 313.925 290 313.91C290 313.895 290 313.88 290 313.865C290 313.85 290 313.835 290 313.82C290 313.805 290 313.79 290 313.775C290 313.76 290 313.745 290 313.731C290 313.716 290 313.701 290 313.686C290 313.671 290 313.656 290 313.641C290 313.626 290 313.611 290 313.596C290 313.581 290 313.566 290 313.551C290 313.536 290 313.521 290 313.506C290 313.491 290 313.476 290 313.461C290 313.446 290 313.431 290 313.416C290 313.401 290 313.386 290 313.371C290 313.357 290 313.342 290 313.327C290 313.312 290 313.297 290 313.282C290 313.267 290 313.252 290 313.237C290 313.222 290 313.207 290 313.192C290 313.177 290 313.162 290 313.147C290 313.132 290 313.117 290 313.102C290 313.087 290 313.072 290 313.057C290 313.043 290 313.028 290 313.013C290 312.998 290 312.983 290 312.968C290 312.953 290 312.938 290 312.923C290 312.908 290 312.893 290 312.878C290 312.863 290 312.848 290 312.833C290 312.818 290 312.803 290 312.788C290 312.774 290 312.759 290 312.744C290 312.729 290 312.714 290 312.699C290 312.684 290 312.669 290 312.654C290 312.639 290 312.624 290 312.609C290 312.594 290 312.579 290 312.564C290 312.55 290 312.535 290 312.52C290 312.505 290 312.49 290 312.475C290 312.46 290 312.445 290 312.43C290 312.415 290 312.4 290 312.385C290 312.37 290 312.355 290 312.34C290 312.326 290 312.311 290 312.296C290 312.281 290 312.266 290 312.251C290 312.236 290 312.221 290 312.206C290 312.191 290 312.176 290 312.161C290 312.146 290 312.132 290 312.117C290 312.102 290 312.087 290 312.072C290 312.057 290 312.042 290 312.027C290 312.012 290 311.997 290 311.982C290 311.967 290 311.953 290 311.938C290 311.923 290 311.908 290 311.893C290 311.878 290 311.863 290 311.848C290 311.833 290 311.818 290 311.803C290 311.788 290 311.774 290 311.759C290 311.744 290 311.729 290 311.714C290 311.699 290 311.684 290 311.669C290 311.654 290 311.639 290 311.624C290 311.61 290 311.595 290 311.58C290 311.565 290 311.55 290 311.535C290 311.52 290 311.505 290 311.49C290 311.475 290 311.461 290 311.446C290 311.431 290 311.416 290 311.401C290 311.386 290 311.371 290 311.356C290 311.341 290 311.326 290 311.312C290 311.297 290 311.282 290 311.267C290 311.252 290 311.237 290 311.222C290 311.207 290 311.192 290 311.177C290 311.163 290 311.148 290 311.133C290 311.118 290 311.103 290 311.088C290 311.073 290 311.058 290 311.043C290 311.029 290 311.014 290 310.999C290 310.984 290 310.969 290 310.954C290 310.939 290 310.924 290 310.909C290 310.895 290 310.88 290 310.865C290 310.85 290 310.835 290 310.82C290 310.805 290 310.79 290 310.776C290 310.761 290 310.746 290 310.731C290 310.716 290 310.701 290 310.686C290 310.671 290 310.656 290 310.642C290 310.627 290 310.612 290 310.597C290 310.582 290 310.567 290 310.552C290 310.537 290 310.523 290 310.508C290 310.493 290 310.478 290 310.463C290 310.448 290 310.433 290 310.418C290 310.404 290 310.389 290 310.374C290 310.359 290 310.344 290 310.329C290 310.314 290 310.299 290 310.285C290 310.27 290 310.255 290 310.24C290 310.225 290 310.21 290 310.195C290 310.181 290 310.166 290 310.151C290 310.136 290 310.121 290 310.106C290 310.091 290 310.077 290 310.062C290 310.047 290 310.032 290 310.017C290 310.002 290 309.987 290 309.972C290 309.958 290 309.943 290 309.928C290 309.913 290 309.898 290 309.883C290 309.868 290 309.854 290 309.839C290 309.824 290 309.809 290 309.794C290 309.779 290 309.764 290 309.75C290 309.735 290 309.72 290 309.705C290 309.69 290 309.675 290 309.661C290 309.646 290 309.631 290 309.616C290 309.601 290 309.586 290 309.571C290 309.557 290 309.542 290 309.527C290 309.512 290 309.497 290 309.482C290 309.467 290 309.453 290 309.438C290 309.423 290 309.408 290 309.393C290 309.378 290 309.364 290 309.349C290 309.334 290 309.319 290 309.304C290 309.289 290 309.275 290 309.26C290 309.245 290 309.23 290 309.215C290 309.2 290 309.186 290 309.171C290 309.156 290 309.141 290 309.126C290 309.111 290 309.097 290 309.082C290 309.067 290 309.052 290 309.037C290 309.022 290 309.008 290 308.993C290 308.978 290 308.963 290 308.948C290 308.933 290 308.919 290 308.904C290 308.889 290 308.874 290 308.859C290 308.844 290 308.83 290 308.815C290 308.8 290 308.785 290 308.77C290 308.755 290 308.741 290 308.726C290 308.711 290 308.696 290 308.681C290 308.666 290 308.652 290 308.637C290 308.622 290 308.607 290 308.592C290 308.578 290 308.563 290 308.548C290 308.533 290 308.518 290 308.503C290 308.489 290 308.474 290 308.459C290 308.444 290 308.429 290 308.415C290 308.4 290 308.385 290 308.37C290 308.355 290 308.34 290 308.326C290 308.311 290 308.296 290 308.281C290 308.266 290 308.252 290 308.237C290 308.222 290 308.207 290 308.192C290 308.178 290 308.163 290 308.148C290 308.133 290 308.118 290 308.104C290 308.089 290 308.074 290 308.059C290 308.044 290 308.03 290 308.015C290 308 290 307.985 290 307.97C290 307.956 290 307.941 290 307.926C290 307.911 290 307.896 290 307.881C290 307.867 290 307.852 290 307.837C290 307.822 290 307.808 290 307.793C290 307.778 290 307.763 290 307.748C290 307.734 290 307.719 290 307.704C290 307.689 290 307.674 290 307.66C290 307.645 290 307.63 290 307.615C290 307.6 290 307.586 290 307.571C290 307.556 290 307.541 290 307.526C290 307.512 290 307.497 290 307.482C290 307.467 290 307.452 290 307.438C290 307.423 290 307.408 290 307.393C290 307.379 290 307.364 290 307.349C290 307.334 290 307.319 290 307.305C290 307.29 290 307.275 290 307.26C290 307.245 290 307.231 290 307.216C290 307.201 290 307.186 290 307.172C290 307.157 290 307.142 290 307.127C290 307.112 290 307.098 290 307.083C290 307.068 290 307.053 290 307.039C290 307.024 290 307.009 290 306.994C290 306.979 290 306.965 290 306.95C290 306.935 290 306.92 290 306.906C290 306.891 290 306.876 290 306.861C290 306.847 290 306.832 290 306.817C290 306.802 290 306.787 290 306.773C290 306.758 290 306.743 290 306.728C290 306.714 290 306.699 290 306.684C290 306.669 290 306.655 290 306.64C290 306.625 290 306.61 290 306.596C290 306.581 290 306.566 290 306.551C290 306.536 290 306.522 290 306.507C290 306.492 290 306.477 290 306.463C290 306.448 290 306.433 290 306.418C290 306.404 290 306.389 290 306.374C290 306.359 290 306.345 290 306.33C290 306.315 290 306.3 290 306.286C290 306.271 290 306.256 290 306.241C290 306.227 290 306.212 290 306.197C290 306.182 290 306.168 290 306.153C290 306.138 290 306.123 290 306.109C290 306.094 290 306.079 290 306.064C290 306.05 290 306.035 290 306.02C290 306.005 290 305.991 290 305.976C290 305.961 290 305.946 290 305.932C290 305.917 290 305.902 290 305.887C290 305.873 290 305.858 290 305.843C290 305.828 290 305.814 290 305.799C290 305.784 290 305.769 290 305.755C290 305.74 290 305.725 290 305.711C290 305.696 290 305.681 290 305.666C290 305.652 290 305.637 290 305.622C290 305.607 290 305.593 290 305.578C290 305.563 290 305.548 290 305.534C290 305.519 290 305.504 290 305.489C290 305.475 290 305.46 290 305.445C290 305.431 290 305.416 290 305.401C290 305.386 290 305.372 290 305.357C290 305.342 290 305.327 290 305.313C290 305.298 290 305.283 290 305.269C290 305.254 290 305.239 290 305.224C290 305.21 290 305.195 290 305.18C290 305.166 290 305.151 290 305.136C290 305.121 290 305.107 290 305.092C290 305.077 290 305.062 290 305.048C290 305.033 290 305.018 290 305.004C290 304.989 290 304.974 290 304.959C290 304.945 290 304.93 290 304.915C290 304.901 290 304.886 290 304.871C290 304.856 290 304.842 290 304.827C290 304.812 290 304.798 290 304.783C290 304.768 290 304.753 290 304.739C290 304.724 290 304.709 290 304.695C290 304.68 290 304.665 290 304.651C290 304.636 290 304.621 290 304.606C290 304.592 290 304.577 290 304.562C290 304.548 290 304.533 290 304.518C290 304.503 290 304.489 290 304.474C290 304.459 290 304.445 290 304.43C290 304.415 290 304.401 290 304.386C290 304.371 290 304.356 290 304.342C290 304.327 290 304.312 290 304.298C290 304.283 290 304.268 290 304.254C290 304.239 290 304.224 290 304.209C290 304.195 290 304.18 290 304.165C290 304.151 290 304.136 290 304.121C290 304.107 290 304.092 290 304.077C290 304.063 290 304.048 290 304.033C290 304.019 290 304.004 290 303.989C290 303.974 290 303.96 290 303.945C290 303.93 290 303.916 290 303.901C290 303.886 290 303.872 290 303.857C290 303.842 290 303.828 290 303.813C290 303.798 290 303.784 290 303.769C290 303.754 290 303.739 290 303.725C290 303.71 290 303.695 290 303.681C290 303.666 290 303.651 290 303.637C290 303.622 290 303.607 290 303.593C290 303.578 290 303.563 290 303.549C290 303.534 290 303.519 290 303.505C290 303.49 290 303.475 290 303.461C290 303.446 290 303.431 290 303.417C290 303.402 290 303.387 290 303.373C290 303.358 290 303.343 290 303.329C290 303.314 290 303.299 290 303.285C290 303.27 290 303.255 290 303.241C290 303.226 290 303.211 290 303.197C290 303.182 290 303.167 290 303.153C290 303.138 290 303.123 290 303.109C290 303.094 290 303.079 290 303.065C290 303.05 290 303.035 290 303.021C290 303.006 290 302.991 290 302.977C290 302.962 290 302.947 290 302.933C290 302.918 290 302.903 290 302.889C290 302.874 290 302.859 290 302.845C290 302.83 290 302.815 290 302.801C290 302.786 290 302.771 290 302.757C290 302.742 290 302.728 290 302.713C290 302.698 290 302.684 290 302.669C290 302.654 290 302.64 290 302.625C290 302.61 290 302.596 290 302.581C290 302.566 290 302.552 290 302.537C290 302.522 290 302.508 290 302.493C290 302.479 290 302.464 290 302.449C290 302.435 290 302.42 290 302.405C290 302.391 290 302.376 290 302.361C290 302.347 290 302.332 290 302.317C290 302.303 290 302.288 290 302.274C290 302.259 290 302.244 290 302.23C290 302.215 290 302.2 290 302.186C290 302.171 290 302.156 290 302.142C290 302.127 290 302.113 290 302.098C290 302.083 290 302.069 290 302.054C290 302.039 290 302.025 290 302.01C290 301.996 290 301.981 290 301.966C290 301.952 290 301.937 290 301.922C290 301.908 290 301.893 290 301.878C290 301.864 290 301.849 290 301.835C290 301.82 290 301.805 290 301.791C290 301.776 290 301.761 290 301.747C290 301.732 290 301.718 290 301.703C290 301.688 290 301.674 290 301.659C290 301.644 290 301.63 290 301.615C290 301.601 290 301.586 290 301.571C290 301.557 290 301.542 290 301.528C290 301.513 290 301.498 290 301.484C290 301.469 290 301.454 290 301.44C290 301.425 290 301.411 290 301.396C290 301.381 290 301.367 290 301.352C290 301.338 290 301.323 290 301.308C290 301.294 290 301.279 290 301.265C290 301.25 290 301.235 290 301.221C290 301.206 290 301.191 290 301.177C290 301.162 290 301.148 290 301.133C290 301.118 290 301.104 290 301.089C290 301.075 290 301.06 290 301.045C290 301.031 290 301.016 290 301.002C290 300.987 290 300.972 290 300.958C290 300.943 290 300.929 290 300.914C290 300.899 290 300.885 290 300.87C290 300.856 290 300.841 290 300.826C290 300.812 290 300.797 290 300.783C290 300.768 290 300.753 290 300.739C290 300.724 290 300.71 290 300.695C290 300.68 290 300.666 290 300.651C290 300.637 290 300.622 290 300.608C290 300.593 290 300.578 290 300.564C290 300.549 290 300.535 290 300.52C290 300.505 290 300.491 290 300.476C290 300.462 290 300.447 290 300.432C290 300.418 290 300.403 290 300.389C290 300.374 290 300.36 290 300.345C290 300.33 290 300.316 290 300.301C290 300.287 290 300.272 290 300.258C290 300.243 290 300.228 290 300.214C290 300.199 290 300.185 290 300.17C290 300.155 290 300.141 290 300.126C290 300.112 290 300.097 290 300.083C290 300.068 290 300.053 290 300.039C290 300.024 290 300.01 290 299.995C290 299.981 290 299.966 290 299.951C290 299.937 290 299.922 290 299.908C290 299.893 290 299.879 290 299.864C290 299.849 290 299.835 290 299.82C290 299.806 290 299.791 290 299.777C290 299.762 290 299.747 290 299.733C290 299.718 290 299.704 290 299.689C290 299.675 290 299.66 290 299.646C290 299.631 290 299.616 290 299.602C290 299.587 290 299.573 290 299.558C290 299.544 290 299.529 290 299.514C290 299.5 290 299.485 290 299.471C290 299.456 290 299.442 290 299.427C290 299.413 290 299.398 290 299.383C290 299.369 290 299.354 290 299.34C290 299.325 290 299.311 290 299.296C290 299.282 290 299.267 290 299.253C290 299.238 290 299.223 290 299.209C290 299.194 290 299.18 290 299.165C290 299.151 290 299.136 290 299.122C290 299.107 290 299.092 290 299.078C290 299.063 290 299.049 290 299.034C290 299.02 290 299.005 290 298.991C290 298.976 290 298.962 290 298.947C290 298.933 290 298.918 290 298.903C290 298.889 290 298.874 290 298.86C290 298.845 290 298.831 290 298.816C290 298.802 290 298.787 290 298.773C290 298.758 290 298.744 290 298.729C290 298.714 290 298.7 290 298.685C290 298.671 290 298.656 290 298.642C290 298.627 290 298.613 290 298.598C290 298.584 290 298.569 290 298.555C290 298.54 290 298.526 290 298.511C290 298.496 290 298.482 290 298.467C290 298.453 290 298.438 290 298.424C290 298.409 290 298.395 290 298.38C290 298.366 290 298.351 290 298.337C290 298.322 290 298.308 290 298.293C290 298.279 290 298.264 290 298.25C290 298.235 290 298.22 290 298.206C290 298.191 290 298.177 290 298.162C290 298.148 290 298.133 290 298.119C290 298.104 290 298.09 290 298.075C290 298.061 290 298.046 290 298.032C290 298.017 290 298.003 290 297.988C290 297.974 290 297.959 290 297.945C290 297.93 290 297.916 290 297.901C290 297.887 290 297.872 290 297.858C290 297.843 290 297.829 290 297.814C290 297.8 290 297.785 290 297.771C290 297.756 290 297.742 290 297.727C290 297.713 290 297.698 290 297.684C290 297.669 290 297.655 290 297.64C290 297.626 290 297.611 290 297.597C290 297.582 290 297.568 290 297.553C290 297.538 290 297.524 290 297.509C290 297.495 290 297.481 290 297.466C290 297.452 290 297.437 290 297.423C290 297.408 290 297.394 290 297.379C290 297.365 290 297.35 290 297.336C290 297.321 290 297.307 290 297.292C290 297.278 290 297.263 290 297.249C290 297.234 290 297.22 290 297.205C290 297.191 290 297.176 290 297.162C290 297.147 290 297.133 290 297.118C290 297.104 290 297.089 290 297.075C290 297.06 290 297.046 290 297.031C290 297.017 290 297.002 290 296.988C290 296.973 290 296.959 290 296.944C290 296.93 290 296.915 290 296.901C290 296.886 290 296.872 290 296.857C290 296.843 290 296.828 290 296.814C290 296.8 290 296.785 290 296.771C290 296.756 290 296.742 290 296.727C290 296.713 290 296.698 290 296.684C290 296.669 290 296.655 290 296.64C290 296.626 290 296.611 290 296.597C290 296.582 290 296.568 290 296.553C290 296.539 290 296.525 290 296.51C290 296.496 290 296.481 290 296.467C290 296.452 290 296.438 290 296.423C290 296.409 290 296.394 290 296.38C290 296.365 290 296.351 290 296.336C290 296.322 290 296.307 290 296.293C290 296.279 290 296.264 290 296.25C290 296.235 290 296.221 290 296.206C290 296.192 290 296.177 290 296.163C290 296.148 290 296.134 290 296.119C290 296.105 290 296.091 290 296.076C290 296.062 290 296.047 290 296.033C290 296.018 290 296.004 290 295.989C290 295.975 290 295.96 290 295.946C290 295.932 290 295.917 290 295.903C290 295.888 290 295.874 290 295.859C290 295.845 290 295.83 290 295.816C290 295.801 290 295.787 290 295.773C290 295.758 290 295.744 290 295.729C290 295.715 290 295.7 290 295.686C290 295.671 290 295.657 290 295.643C290 295.628 290 295.614 290 295.599C290 295.585 290 295.57 290 295.556C290 295.541 290 295.527 290 295.513C290 295.498 290 295.484 290 295.469C290 295.455 290 295.44 290 295.426C290 295.412 290 295.397 290 295.383C290 295.368 290 295.354 290 295.339C290 295.325 290 295.31 290 295.296C290 295.282 290 295.267 290 295.253C290 295.238 290 295.224 290 295.209C290 295.195 290 295.181 290 295.166C290 295.152 290 295.137 290 295.123C290 295.108 290 295.094 290 295.08C290 295.065 290 295.051 290 295.036C290 295.022 290 295.007 290 294.993C290 294.979 290 294.964 290 294.95C290 294.935 290 294.921 290 294.906C290 294.892 290 294.878 290 294.863C290 294.849 290 294.834 290 294.82C290 294.805 290 294.791 290 294.777C290 294.762 290 294.748 290 294.733C290 294.719 290 294.705 290 294.69C290 294.676 290 294.661 290 294.647C290 294.632 290 294.618 290 294.604C290 294.589 290 294.575 290 294.56C290 294.546 290 294.532 290 294.517C290 294.503 290 294.488 290 294.474C290 294.46 290 294.445 290 294.431C290 294.416 290 294.402 290 294.387C290 294.373 290 294.359 290 294.344C290 294.33 290 294.315 290 294.301C290 294.287 290 294.272 290 294.258C290 294.243 290 294.229 290 294.215C290 294.2 290 294.186 290 294.171C290 294.157 290 294.143 290 294.128C290 294.114 290 294.099 290 294.085C290 294.071 290 294.056 290 294.042C290 294.027 290 294.013 290 293.999C290 293.984 290 293.97 290 293.955C290 293.941 290 293.927 290 293.912C290 293.898 290 293.883 290 293.869C290 293.855 290 293.84 290 293.826C290 293.811 290 293.797 290 293.783C290 293.768 290 293.754 290 293.74C290 293.725 290 293.711 290 293.696C290 293.682 290 293.668 290 293.653C290 293.639 290 293.624 290 293.61C290 293.596 290 293.581 290 293.567C290 293.552 290 293.538 290 293.524C290 293.509 290 293.495 290 293.481C290 293.466 290 293.452 290 293.437C290 293.423 290 293.409 290 293.394C290 293.38 290 293.366 290 293.351C290 293.337 290 293.322 290 293.308C290 293.294 290 293.279 290 293.265C290 293.251 290 293.236 290 293.222C290 293.207 290 293.193 290 293.179C290 293.164 290 293.15 290 293.136C290 293.121 290 293.107 290 293.092C290 293.078 290 293.064 290 293.049C290 293.035 290 293.021 290 293.006C290 292.992 290 292.977 290 292.963C290 292.949 290 292.934 290 292.92C290 292.906 290 292.891 290 292.877C290 292.863 290 292.848 290 292.834C290 292.819 290 292.805 290 292.791C290 292.776 290 292.762 290 292.748C290 292.733 290 292.719 290 292.705C290 292.69 290 292.676 290 292.662C290 292.647 290 292.633 290 292.618C290 292.604 290 292.59 290 292.575C290 292.561 290 292.547 290 292.532C290 292.518 290 292.504 290 292.489C290 292.475 290 292.461 290 292.446C290 292.432 290 292.418 290 292.403C290 292.389 290 292.374 290 292.36C290 292.346 290 292.331 290 292.317C290 292.303 290 292.288 290 292.274C290 292.26 290 292.245 290 292.231C290 292.217 290 292.202 290 292.188C290 292.174 290 292.159 290 292.145C290 292.131 290 292.116 290 292.102C290 292.088 290 292.073 290 292.059C290 292.045 290 292.03 290 292.016C290 292.002 290 291.987 290 291.973C290 291.959 290 291.944 290 291.93C290 291.916 290 291.901 290 291.887C290 291.873 290 291.858 290 291.844C290 291.83 290 291.815 290 291.801C290 291.787 290 291.772 290 291.758C290 291.744 290 291.729 290 291.715C290 291.701 290 291.686 290 291.672C290 291.658 290 291.643 290 291.629C290 291.615 290 291.6 290 291.586C290 291.572 290 291.557 290 291.543C290 291.529 290 291.514 290 291.5H258C258 291.514 258 291.529 258 291.543C258 291.557 258 291.572 258 291.586C258 291.6 258 291.615 258 291.629C258 291.643 258 291.658 258 291.672C258 291.686 258 291.701 258 291.715C258 291.729 258 291.744 258 291.758C258 291.772 258 291.787 258 291.801C258 291.815 258 291.83 258 291.844C258 291.858 258 291.873 258 291.887C258 291.901 258 291.916 258 291.93C258 291.944 258 291.959 258 291.973C258 291.987 258 292.002 258 292.016C258 292.03 258 292.045 258 292.059C258 292.073 258 292.088 258 292.102C258 292.116 258 292.131 258 292.145C258 292.159 258 292.174 258 292.188C258 292.202 258 292.217 258 292.231C258 292.245 258 292.26 258 292.274C258 292.288 258 292.303 258 292.317C258 292.331 258 292.346 258 292.36C258 292.374 258 292.389 258 292.403C258 292.418 258 292.432 258 292.446C258 292.461 258 292.475 258 292.489C258 292.504 258 292.518 258 292.532C258 292.547 258 292.561 258 292.575C258 292.59 258 292.604 258 292.618C258 292.633 258 292.647 258 292.662C258 292.676 258 292.69 258 292.705C258 292.719 258 292.733 258 292.748C258 292.762 258 292.776 258 292.791C258 292.805 258 292.819 258 292.834C258 292.848 258 292.863 258 292.877C258 292.891 258 292.906 258 292.92C258 292.934 258 292.949 258 292.963C258 292.977 258 292.992 258 293.006C258 293.021 258 293.035 258 293.049C258 293.064 258 293.078 258 293.092C258 293.107 258 293.121 258 293.136C258 293.15 258 293.164 258 293.179C258 293.193 258 293.207 258 293.222C258 293.236 258 293.251 258 293.265C258 293.279 258 293.294 258 293.308C258 293.322 258 293.337 258 293.351C258 293.366 258 293.38 258 293.394C258 293.409 258 293.423 258 293.437C258 293.452 258 293.466 258 293.481C258 293.495 258 293.509 258 293.524C258 293.538 258 293.552 258 293.567C258 293.581 258 293.596 258 293.61C258 293.624 258 293.639 258 293.653C258 293.668 258 293.682 258 293.696C258 293.711 258 293.725 258 293.74C258 293.754 258 293.768 258 293.783C258 293.797 258 293.811 258 293.826C258 293.84 258 293.855 258 293.869C258 293.883 258 293.898 258 293.912C258 293.927 258 293.941 258 293.955C258 293.97 258 293.984 258 293.999C258 294.013 258 294.027 258 294.042C258 294.056 258 294.071 258 294.085C258 294.099 258 294.114 258 294.128C258 294.143 258 294.157 258 294.171C258 294.186 258 294.2 258 294.215C258 294.229 258 294.243 258 294.258C258 294.272 258 294.287 258 294.301C258 294.315 258 294.33 258 294.344C258 294.359 258 294.373 258 294.387C258 294.402 258 294.416 258 294.431C258 294.445 258 294.46 258 294.474C258 294.488 258 294.503 258 294.517C258 294.532 258 294.546 258 294.56C258 294.575 258 294.589 258 294.604C258 294.618 258 294.632 258 294.647C258 294.661 258 294.676 258 294.69C258 294.705 258 294.719 258 294.733C258 294.748 258 294.762 258 294.777C258 294.791 258 294.805 258 294.82C258 294.834 258 294.849 258 294.863C258 294.878 258 294.892 258 294.906C258 294.921 258 294.935 258 294.95C258 294.964 258 294.979 258 294.993C258 295.007 258 295.022 258 295.036C258 295.051 258 295.065 258 295.08C258 295.094 258 295.108 258 295.123C258 295.137 258 295.152 258 295.166C258 295.181 258 295.195 258 295.209C258 295.224 258 295.238 258 295.253C258 295.267 258 295.282 258 295.296C258 295.31 258 295.325 258 295.339C258 295.354 258 295.368 258 295.383C258 295.397 258 295.412 258 295.426C258 295.44 258 295.455 258 295.469C258 295.484 258 295.498 258 295.513C258 295.527 258 295.541 258 295.556C258 295.57 258 295.585 258 295.599C258 295.614 258 295.628 258 295.643C258 295.657 258 295.671 258 295.686C258 295.7 258 295.715 258 295.729C258 295.744 258 295.758 258 295.773C258 295.787 258 295.801 258 295.816C258 295.83 258 295.845 258 295.859C258 295.874 258 295.888 258 295.903C258 295.917 258 295.932 258 295.946C258 295.96 258 295.975 258 295.989C258 296.004 258 296.018 258 296.033C258 296.047 258 296.062 258 296.076C258 296.091 258 296.105 258 296.119C258 296.134 258 296.148 258 296.163C258 296.177 258 296.192 258 296.206C258 296.221 258 296.235 258 296.25C258 296.264 258 296.279 258 296.293C258 296.307 258 296.322 258 296.336C258 296.351 258 296.365 258 296.38C258 296.394 258 296.409 258 296.423C258 296.438 258 296.452 258 296.467C258 296.481 258 296.496 258 296.51C258 296.525 258 296.539 258 296.553C258 296.568 258 296.582 258 296.597C258 296.611 258 296.626 258 296.64C258 296.655 258 296.669 258 296.684C258 296.698 258 296.713 258 296.727C258 296.742 258 296.756 258 296.771C258 296.785 258 296.8 258 296.814C258 296.828 258 296.843 258 296.857C258 296.872 258 296.886 258 296.901C258 296.915 258 296.93 258 296.944C258 296.959 258 296.973 258 296.988C258 297.002 258 297.017 258 297.031C258 297.046 258 297.06 258 297.075C258 297.089 258 297.104 258 297.118C258 297.133 258 297.147 258 297.162C258 297.176 258 297.191 258 297.205C258 297.22 258 297.234 258 297.249C258 297.263 258 297.278 258 297.292C258 297.307 258 297.321 258 297.336C258 297.35 258 297.365 258 297.379C258 297.394 258 297.408 258 297.423C258 297.437 258 297.452 258 297.466C258 297.481 258 297.495 258 297.509C258 297.524 258 297.538 258 297.553C258 297.568 258 297.582 258 297.597C258 297.611 258 297.626 258 297.64C258 297.655 258 297.669 258 297.684C258 297.698 258 297.713 258 297.727C258 297.742 258 297.756 258 297.771C258 297.785 258 297.8 258 297.814C258 297.829 258 297.843 258 297.858C258 297.872 258 297.887 258 297.901C258 297.916 258 297.93 258 297.945C258 297.959 258 297.974 258 297.988C258 298.003 258 298.017 258 298.032C258 298.046 258 298.061 258 298.075C258 298.09 258 298.104 258 298.119C258 298.133 258 298.148 258 298.162C258 298.177 258 298.191 258 298.206C258 298.22 258 298.235 258 298.25C258 298.264 258 298.279 258 298.293C258 298.308 258 298.322 258 298.337C258 298.351 258 298.366 258 298.38C258 298.395 258 298.409 258 298.424C258 298.438 258 298.453 258 298.467C258 298.482 258 298.496 258 298.511C258 298.526 258 298.54 258 298.555C258 298.569 258 298.584 258 298.598C258 298.613 258 298.627 258 298.642C258 298.656 258 298.671 258 298.685C258 298.7 258 298.714 258 298.729C258 298.744 258 298.758 258 298.773C258 298.787 258 298.802 258 298.816C258 298.831 258 298.845 258 298.86C258 298.874 258 298.889 258 298.903C258 298.918 258 298.933 258 298.947C258 298.962 258 298.976 258 298.991C258 299.005 258 299.02 258 299.034C258 299.049 258 299.063 258 299.078C258 299.092 258 299.107 258 299.122C258 299.136 258 299.151 258 299.165C258 299.18 258 299.194 258 299.209C258 299.223 258 299.238 258 299.253C258 299.267 258 299.282 258 299.296C258 299.311 258 299.325 258 299.34C258 299.354 258 299.369 258 299.383C258 299.398 258 299.413 258 299.427C258 299.442 258 299.456 258 299.471C258 299.485 258 299.5 258 299.514C258 299.529 258 299.544 258 299.558C258 299.573 258 299.587 258 299.602C258 299.616 258 299.631 258 299.646C258 299.66 258 299.675 258 299.689C258 299.704 258 299.718 258 299.733C258 299.747 258 299.762 258 299.777C258 299.791 258 299.806 258 299.82C258 299.835 258 299.849 258 299.864C258 299.879 258 299.893 258 299.908C258 299.922 258 299.937 258 299.951C258 299.966 258 299.981 258 299.995C258 300.01 258 300.024 258 300.039C258 300.053 258 300.068 258 300.083C258 300.097 258 300.112 258 300.126C258 300.141 258 300.155 258 300.17C258 300.185 258 300.199 258 300.214C258 300.228 258 300.243 258 300.258C258 300.272 258 300.287 258 300.301C258 300.316 258 300.33 258 300.345C258 300.36 258 300.374 258 300.389C258 300.403 258 300.418 258 300.432C258 300.447 258 300.462 258 300.476C258 300.491 258 300.505 258 300.52C258 300.535 258 300.549 258 300.564C258 300.578 258 300.593 258 300.608C258 300.622 258 300.637 258 300.651C258 300.666 258 300.68 258 300.695C258 300.71 258 300.724 258 300.739C258 300.753 258 300.768 258 300.783C258 300.797 258 300.812 258 300.826C258 300.841 258 300.856 258 300.87C258 300.885 258 300.899 258 300.914C258 300.929 258 300.943 258 300.958C258 300.972 258 300.987 258 301.002C258 301.016 258 301.031 258 301.045C258 301.06 258 301.075 258 301.089C258 301.104 258 301.118 258 301.133C258 301.148 258 301.162 258 301.177C258 301.191 258 301.206 258 301.221C258 301.235 258 301.25 258 301.265C258 301.279 258 301.294 258 301.308C258 301.323 258 301.338 258 301.352C258 301.367 258 301.381 258 301.396C258 301.411 258 301.425 258 301.44C258 301.454 258 301.469 258 301.484C258 301.498 258 301.513 258 301.528C258 301.542 258 301.557 258 301.571C258 301.586 258 301.601 258 301.615C258 301.63 258 301.644 258 301.659C258 301.674 258 301.688 258 301.703C258 301.718 258 301.732 258 301.747C258 301.761 258 301.776 258 301.791C258 301.805 258 301.82 258 301.835C258 301.849 258 301.864 258 301.878C258 301.893 258 301.908 258 301.922C258 301.937 258 301.952 258 301.966C258 301.981 258 301.996 258 302.01C258 302.025 258 302.039 258 302.054C258 302.069 258 302.083 258 302.098C258 302.113 258 302.127 258 302.142C258 302.156 258 302.171 258 302.186C258 302.2 258 302.215 258 302.23C258 302.244 258 302.259 258 302.274C258 302.288 258 302.303 258 302.317C258 302.332 258 302.347 258 302.361C258 302.376 258 302.391 258 302.405C258 302.42 258 302.435 258 302.449C258 302.464 258 302.479 258 302.493C258 302.508 258 302.522 258 302.537C258 302.552 258 302.566 258 302.581C258 302.596 258 302.61 258 302.625C258 302.64 258 302.654 258 302.669C258 302.684 258 302.698 258 302.713C258 302.728 258 302.742 258 302.757C258 302.771 258 302.786 258 302.801C258 302.815 258 302.83 258 302.845C258 302.859 258 302.874 258 302.889C258 302.903 258 302.918 258 302.933C258 302.947 258 302.962 258 302.977C258 302.991 258 303.006 258 303.021C258 303.035 258 303.05 258 303.065C258 303.079 258 303.094 258 303.109C258 303.123 258 303.138 258 303.153C258 303.167 258 303.182 258 303.197C258 303.211 258 303.226 258 303.241C258 303.255 258 303.27 258 303.285C258 303.299 258 303.314 258 303.329C258 303.343 258 303.358 258 303.373C258 303.387 258 303.402 258 303.417C258 303.431 258 303.446 258 303.461C258 303.475 258 303.49 258 303.505C258 303.519 258 303.534 258 303.549C258 303.563 258 303.578 258 303.593C258 303.607 258 303.622 258 303.637C258 303.651 258 303.666 258 303.681C258 303.695 258 303.71 258 303.725C258 303.739 258 303.754 258 303.769C258 303.784 258 303.798 258 303.813C258 303.828 258 303.842 258 303.857C258 303.872 258 303.886 258 303.901C258 303.916 258 303.93 258 303.945C258 303.96 258 303.974 258 303.989C258 304.004 258 304.019 258 304.033C258 304.048 258 304.063 258 304.077C258 304.092 258 304.107 258 304.121C258 304.136 258 304.151 258 304.165C258 304.18 258 304.195 258 304.209C258 304.224 258 304.239 258 304.254C258 304.268 258 304.283 258 304.298C258 304.312 258 304.327 258 304.342C258 304.356 258 304.371 258 304.386C258 304.401 258 304.415 258 304.43C258 304.445 258 304.459 258 304.474C258 304.489 258 304.503 258 304.518C258 304.533 258 304.548 258 304.562C258 304.577 258 304.592 258 304.606C258 304.621 258 304.636 258 304.651C258 304.665 258 304.68 258 304.695C258 304.709 258 304.724 258 304.739C258 304.753 258 304.768 258 304.783C258 304.798 258 304.812 258 304.827C258 304.842 258 304.856 258 304.871C258 304.886 258 304.901 258 304.915C258 304.93 258 304.945 258 304.959C258 304.974 258 304.989 258 305.004C258 305.018 258 305.033 258 305.048C258 305.062 258 305.077 258 305.092C258 305.107 258 305.121 258 305.136C258 305.151 258 305.166 258 305.18C258 305.195 258 305.21 258 305.224C258 305.239 258 305.254 258 305.269C258 305.283 258 305.298 258 305.313C258 305.327 258 305.342 258 305.357C258 305.372 258 305.386 258 305.401C258 305.416 258 305.431 258 305.445C258 305.46 258 305.475 258 305.489C258 305.504 258 305.519 258 305.534C258 305.548 258 305.563 258 305.578C258 305.593 258 305.607 258 305.622C258 305.637 258 305.652 258 305.666C258 305.681 258 305.696 258 305.711C258 305.725 258 305.74 258 305.755C258 305.769 258 305.784 258 305.799C258 305.814 258 305.828 258 305.843C258 305.858 258 305.873 258 305.887C258 305.902 258 305.917 258 305.932C258 305.946 258 305.961 258 305.976C258 305.991 258 306.005 258 306.02C258 306.035 258 306.05 258 306.064C258 306.079 258 306.094 258 306.109C258 306.123 258 306.138 258 306.153C258 306.168 258 306.182 258 306.197C258 306.212 258 306.227 258 306.241C258 306.256 258 306.271 258 306.286C258 306.3 258 306.315 258 306.33C258 306.345 258 306.359 258 306.374C258 306.389 258 306.404 258 306.418C258 306.433 258 306.448 258 306.463C258 306.477 258 306.492 258 306.507C258 306.522 258 306.536 258 306.551C258 306.566 258 306.581 258 306.596C258 306.61 258 306.625 258 306.64C258 306.655 258 306.669 258 306.684C258 306.699 258 306.714 258 306.728C258 306.743 258 306.758 258 306.773C258 306.787 258 306.802 258 306.817C258 306.832 258 306.847 258 306.861C258 306.876 258 306.891 258 306.906C258 306.92 258 306.935 258 306.95C258 306.965 258 306.979 258 306.994C258 307.009 258 307.024 258 307.039C258 307.053 258 307.068 258 307.083C258 307.098 258 307.112 258 307.127C258 307.142 258 307.157 258 307.172C258 307.186 258 307.201 258 307.216C258 307.231 258 307.245 258 307.26C258 307.275 258 307.29 258 307.305C258 307.319 258 307.334 258 307.349C258 307.364 258 307.379 258 307.393C258 307.408 258 307.423 258 307.438C258 307.452 258 307.467 258 307.482C258 307.497 258 307.512 258 307.526C258 307.541 258 307.556 258 307.571C258 307.586 258 307.6 258 307.615C258 307.63 258 307.645 258 307.66C258 307.674 258 307.689 258 307.704C258 307.719 258 307.734 258 307.748C258 307.763 258 307.778 258 307.793C258 307.808 258 307.822 258 307.837C258 307.852 258 307.867 258 307.881C258 307.896 258 307.911 258 307.926C258 307.941 258 307.956 258 307.97C258 307.985 258 308 258 308.015C258 308.03 258 308.044 258 308.059C258 308.074 258 308.089 258 308.104C258 308.118 258 308.133 258 308.148C258 308.163 258 308.178 258 308.192C258 308.207 258 308.222 258 308.237C258 308.252 258 308.266 258 308.281C258 308.296 258 308.311 258 308.326C258 308.34 258 308.355 258 308.37C258 308.385 258 308.4 258 308.415C258 308.429 258 308.444 258 308.459C258 308.474 258 308.489 258 308.503C258 308.518 258 308.533 258 308.548C258 308.563 258 308.578 258 308.592C258 308.607 258 308.622 258 308.637C258 308.652 258 308.666 258 308.681C258 308.696 258 308.711 258 308.726C258 308.741 258 308.755 258 308.77C258 308.785 258 308.8 258 308.815C258 308.83 258 308.844 258 308.859C258 308.874 258 308.889 258 308.904C258 308.919 258 308.933 258 308.948C258 308.963 258 308.978 258 308.993C258 309.008 258 309.022 258 309.037C258 309.052 258 309.067 258 309.082C258 309.097 258 309.111 258 309.126C258 309.141 258 309.156 258 309.171C258 309.186 258 309.2 258 309.215C258 309.23 258 309.245 258 309.26C258 309.275 258 309.289 258 309.304C258 309.319 258 309.334 258 309.349C258 309.364 258 309.378 258 309.393C258 309.408 258 309.423 258 309.438C258 309.453 258 309.467 258 309.482C258 309.497 258 309.512 258 309.527C258 309.542 258 309.557 258 309.571C258 309.586 258 309.601 258 309.616C258 309.631 258 309.646 258 309.661C258 309.675 258 309.69 258 309.705C258 309.72 258 309.735 258 309.75C258 309.764 258 309.779 258 309.794C258 309.809 258 309.824 258 309.839C258 309.854 258 309.868 258 309.883C258 309.898 258 309.913 258 309.928C258 309.943 258 309.958 258 309.972C258 309.987 258 310.002 258 310.017C258 310.032 258 310.047 258 310.062C258 310.077 258 310.091 258 310.106C258 310.121 258 310.136 258 310.151C258 310.166 258 310.181 258 310.195C258 310.21 258 310.225 258 310.24C258 310.255 258 310.27 258 310.285C258 310.299 258 310.314 258 310.329C258 310.344 258 310.359 258 310.374C258 310.389 258 310.404 258 310.418C258 310.433 258 310.448 258 310.463C258 310.478 258 310.493 258 310.508C258 310.523 258 310.537 258 310.552C258 310.567 258 310.582 258 310.597C258 310.612 258 310.627 258 310.642C258 310.656 258 310.671 258 310.686C258 310.701 258 310.716 258 310.731C258 310.746 258 310.761 258 310.776C258 310.79 258 310.805 258 310.82C258 310.835 258 310.85 258 310.865C258 310.88 258 310.895 258 310.909C258 310.924 258 310.939 258 310.954C258 310.969 258 310.984 258 310.999C258 311.014 258 311.029 258 311.043C258 311.058 258 311.073 258 311.088C258 311.103 258 311.118 258 311.133C258 311.148 258 311.163 258 311.177C258 311.192 258 311.207 258 311.222C258 311.237 258 311.252 258 311.267C258 311.282 258 311.297 258 311.312C258 311.326 258 311.341 258 311.356C258 311.371 258 311.386 258 311.401C258 311.416 258 311.431 258 311.446C258 311.461 258 311.475 258 311.49C258 311.505 258 311.52 258 311.535C258 311.55 258 311.565 258 311.58C258 311.595 258 311.61 258 311.624C258 311.639 258 311.654 258 311.669C258 311.684 258 311.699 258 311.714C258 311.729 258 311.744 258 311.759C258 311.774 258 311.788 258 311.803C258 311.818 258 311.833 258 311.848C258 311.863 258 311.878 258 311.893C258 311.908 258 311.923 258 311.938C258 311.953 258 311.967 258 311.982C258 311.997 258 312.012 258 312.027C258 312.042 258 312.057 258 312.072C258 312.087 258 312.102 258 312.117C258 312.132 258 312.146 258 312.161C258 312.176 258 312.191 258 312.206C258 312.221 258 312.236 258 312.251C258 312.266 258 312.281 258 312.296C258 312.311 258 312.326 258 312.34C258 312.355 258 312.37 258 312.385C258 312.4 258 312.415 258 312.43C258 312.445 258 312.46 258 312.475C258 312.49 258 312.505 258 312.52C258 312.535 258 312.55 258 312.564C258 312.579 258 312.594 258 312.609C258 312.624 258 312.639 258 312.654C258 312.669 258 312.684 258 312.699C258 312.714 258 312.729 258 312.744C258 312.759 258 312.774 258 312.788C258 312.803 258 312.818 258 312.833C258 312.848 258 312.863 258 312.878C258 312.893 258 312.908 258 312.923C258 312.938 258 312.953 258 312.968C258 312.983 258 312.998 258 313.013C258 313.028 258 313.043 258 313.057C258 313.072 258 313.087 258 313.102C258 313.117 258 313.132 258 313.147C258 313.162 258 313.177 258 313.192C258 313.207 258 313.222 258 313.237C258 313.252 258 313.267 258 313.282C258 313.297 258 313.312 258 313.327C258 313.342 258 313.357 258 313.371C258 313.386 258 313.401 258 313.416C258 313.431 258 313.446 258 313.461C258 313.476 258 313.491 258 313.506C258 313.521 258 313.536 258 313.551C258 313.566 258 313.581 258 313.596C258 313.611 258 313.626 258 313.641C258 313.656 258 313.671 258 313.686C258 313.701 258 313.716 258 313.731C258 313.745 258 313.76 258 313.775C258 313.79 258 313.805 258 313.82C258 313.835 258 313.85 258 313.865C258 313.88 258 313.895 258 313.91C258 313.925 258 313.94 258 313.955C258 313.97 258 313.985 258 314H290ZM290 291.5C290 283.385 289.648 274.342 288.962 264.399L257.038 266.601C257.686 275.992 258 284.281 258 291.5H290ZM288.997 265.17C288.289 230.867 280.141 202.364 261.562 182.94L238.438 205.06C249.192 216.303 256.377 235.466 257.003 265.83L288.997 265.17ZM261.68 183.065C242.565 162.646 212.456 154.5 176 154.5V186.5C208.877 186.5 228.102 194.02 238.32 204.935L261.68 183.065ZM176 154.5H102.5V186.5H176V154.5ZM86.5 170.5V435.5H118.5V170.5H86.5Z" fill="#161018" mask="url(#path-1-outside-1_6_6)"/>
</svg>
