<svg width="39" height="20" viewBox="0 0 39 20" fill="none" xmlns="http://www.w3.org/2000/svg">
<rect width="39" height="20" rx="2" fill="#ECE6EF"/>
<path d="M9.339 16.69C8.03433 16.69 6.99567 16.291 6.223 15.493C5.45033 14.6823 5.026 13.5803 4.95 12.187C4.93733 12.0223 4.931 11.8133 4.931 11.56C4.931 11.294 4.93733 11.0787 4.95 10.914C5.00067 10.0147 5.20967 9.22933 5.577 8.558C5.94433 7.874 6.44467 7.34833 7.078 6.981C7.724 6.61367 8.47767 6.43 9.339 6.43C10.3017 6.43 11.106 6.63267 11.752 7.038C12.4107 7.44333 12.911 8.01967 13.253 8.767C13.595 9.51433 13.766 10.3883 13.766 11.389V11.712C13.766 11.8513 13.7217 11.959 13.633 12.035C13.557 12.111 13.4557 12.149 13.329 12.149H6.755C6.755 12.1617 6.755 12.187 6.755 12.225C6.755 12.263 6.755 12.2947 6.755 12.32C6.78033 12.8393 6.89433 13.327 7.097 13.783C7.29967 14.2263 7.591 14.5873 7.971 14.866C8.351 15.1447 8.807 15.284 9.339 15.284C9.795 15.284 10.175 15.2143 10.479 15.075C10.783 14.9357 11.03 14.7837 11.22 14.619C11.41 14.4417 11.5367 14.3087 11.6 14.22C11.714 14.0553 11.8027 13.9603 11.866 13.935C11.9293 13.897 12.0307 13.878 12.17 13.878H13.082C13.2087 13.878 13.31 13.916 13.386 13.992C13.4747 14.0553 13.5127 14.1503 13.5 14.277C13.4873 14.467 13.386 14.7013 13.196 14.98C13.006 15.246 12.7337 15.512 12.379 15.778C12.0243 16.044 11.5937 16.2657 11.087 16.443C10.5803 16.6077 9.99767 16.69 9.339 16.69ZM6.755 10.838H11.961V10.781C11.961 10.211 11.8533 9.70433 11.638 9.261C11.4353 8.81767 11.1377 8.46933 10.745 8.216C10.3523 7.95 9.88367 7.817 9.339 7.817C8.79433 7.817 8.32567 7.95 7.933 8.216C7.553 8.46933 7.26167 8.81767 7.059 9.261C6.85633 9.70433 6.755 10.211 6.755 10.781V10.838ZM19.4578 16.69C18.7485 16.69 18.1405 16.6013 17.6338 16.424C17.1272 16.2467 16.7155 16.0313 16.3988 15.778C16.0822 15.5247 15.8415 15.2713 15.6768 15.018C15.5248 14.7647 15.4425 14.562 15.4298 14.41C15.4172 14.2707 15.4615 14.163 15.5628 14.087C15.6642 14.011 15.7655 13.973 15.8668 13.973H16.7028C16.7788 13.973 16.8358 13.9857 16.8738 14.011C16.9245 14.0237 16.9878 14.0743 17.0638 14.163C17.2285 14.3403 17.4122 14.5177 17.6148 14.695C17.8175 14.8723 18.0645 15.018 18.3558 15.132C18.6598 15.246 19.0335 15.303 19.4768 15.303C20.1228 15.303 20.6548 15.1827 21.0728 14.942C21.4908 14.6887 21.6998 14.3213 21.6998 13.84C21.6998 13.5233 21.6112 13.27 21.4338 13.08C21.2692 12.89 20.9652 12.719 20.5218 12.567C20.0912 12.415 19.4958 12.2567 18.7358 12.092C17.9758 11.9147 17.3742 11.6993 16.9308 11.446C16.4875 11.18 16.1708 10.8697 15.9808 10.515C15.7908 10.1477 15.6958 9.736 15.6958 9.28C15.6958 8.81133 15.8352 8.36167 16.1138 7.931C16.3925 7.48767 16.7978 7.12667 17.3298 6.848C17.8745 6.56933 18.5522 6.43 19.3628 6.43C20.0215 6.43 20.5852 6.51233 21.0538 6.677C21.5225 6.84167 21.9088 7.05067 22.2128 7.304C22.5168 7.54467 22.7448 7.78533 22.8968 8.026C23.0488 8.26667 23.1312 8.46933 23.1438 8.634C23.1565 8.76067 23.1185 8.86833 23.0298 8.957C22.9412 9.033 22.8398 9.071 22.7258 9.071H21.9278C21.8392 9.071 21.7632 9.052 21.6998 9.014C21.6492 8.976 21.5985 8.93167 21.5478 8.881C21.4212 8.71633 21.2692 8.55167 21.0918 8.387C20.9272 8.22233 20.7055 8.08933 20.4268 7.988C20.1608 7.874 19.8062 7.817 19.3628 7.817C18.7295 7.817 18.2545 7.95 17.9378 8.216C17.6212 8.482 17.4628 8.81767 17.4628 9.223C17.4628 9.46367 17.5325 9.679 17.6718 9.869C17.8112 10.059 18.0772 10.23 18.4698 10.382C18.8625 10.534 19.4452 10.6987 20.2178 10.876C21.0538 11.0407 21.7125 11.2623 22.1938 11.541C22.6752 11.8197 23.0172 12.1427 23.2198 12.51C23.4225 12.8773 23.5238 13.3017 23.5238 13.783C23.5238 14.315 23.3655 14.8027 23.0488 15.246C22.7448 15.6893 22.2888 16.044 21.6808 16.31C21.0855 16.5633 20.3445 16.69 19.4578 16.69ZM29.7134 16.69C28.814 16.69 28.035 16.519 27.3764 16.177C26.7304 15.8223 26.23 15.322 25.8754 14.676C25.5207 14.0173 25.3307 13.232 25.3054 12.32C25.2927 12.13 25.2864 11.8767 25.2864 11.56C25.2864 11.2433 25.2927 10.99 25.3054 10.8C25.3307 9.888 25.5207 9.109 25.8754 8.463C26.23 7.80433 26.7304 7.304 27.3764 6.962C28.035 6.60733 28.814 6.43 29.7134 6.43C30.448 6.43 31.075 6.53133 31.5944 6.734C32.1264 6.93667 32.5634 7.19633 32.9054 7.513C33.2474 7.82967 33.5007 8.17167 33.6654 8.539C33.8427 8.90633 33.9377 9.25467 33.9504 9.584C33.963 9.71067 33.925 9.812 33.8364 9.888C33.7477 9.964 33.64 10.002 33.5134 10.002H32.6014C32.4747 10.002 32.3797 9.97667 32.3164 9.926C32.253 9.86267 32.1897 9.76133 32.1264 9.622C31.8984 9.00133 31.588 8.56433 31.1954 8.311C30.8027 8.05767 30.3151 7.931 29.7324 7.931C28.9724 7.931 28.3517 8.16533 27.8704 8.634C27.4017 9.10267 27.1484 9.85633 27.1104 10.895C27.0977 11.351 27.0977 11.7943 27.1104 12.225C27.1484 13.2763 27.4017 14.0363 27.8704 14.505C28.3517 14.961 28.9724 15.189 29.7324 15.189C30.3151 15.189 30.8027 15.0623 31.1954 14.809C31.588 14.5557 31.8984 14.1187 32.1264 13.498C32.1897 13.3587 32.253 13.2637 32.3164 13.213C32.3797 13.1497 32.4747 13.118 32.6014 13.118H33.5134C33.64 13.118 33.7477 13.156 33.8364 13.232C33.925 13.308 33.963 13.4093 33.9504 13.536C33.9377 13.802 33.8807 14.0743 33.7794 14.353C33.678 14.6317 33.5134 14.9167 33.2854 15.208C33.07 15.4867 32.7977 15.74 32.4684 15.968C32.139 16.1833 31.74 16.3607 31.2714 16.5C30.8154 16.6267 30.296 16.69 29.7134 16.69Z" fill="#2C2031"/>
</svg>
