<svg width="371" height="613" viewBox="0 0 371 613" fill="none" xmlns="http://www.w3.org/2000/svg">
<mask id="path-1-outside-1_6_12" maskUnits="userSpaceOnUse" x="37" y="112" width="260" height="382" fill="black">
<rect fill="white" x="37" y="112" width="260" height="382"/>
<path d="M65 478C61.3333 478 58.5 477 56.5 475C54.5 472.667 53.5 469.833 53.5 466.5V140C53.5 136.333 54.5 133.5 56.5 131.5C58.5 129.167 61.3333 128 65 128H269C272.667 128 275.5 129.167 277.5 131.5C279.5 133.5 280.5 136.333 280.5 140V160C280.5 163.667 279.5 166.5 277.5 168.5C275.5 170.5 272.667 171.5 269 171.5H102V288H259C262.667 288 265.5 289.167 267.5 291.5C269.5 293.5 270.5 296.333 270.5 300V320C270.5 323.333 269.5 326.167 267.5 328.5C265.5 330.5 262.667 331.5 259 331.5H102V466.5C102 469.833 100.833 472.667 98.5 475C96.5 477 93.6667 478 90 478H65Z"/>
</mask>
<path d="M65 478C61.3333 478 58.5 477 56.5 475C54.5 472.667 53.5 469.833 53.5 466.5V140C53.5 136.333 54.5 133.5 56.5 131.5C58.5 129.167 61.3333 128 65 128H269C272.667 128 275.5 129.167 277.5 131.5C279.5 133.5 280.5 136.333 280.5 140V160C280.5 163.667 279.5 166.5 277.5 168.5C275.5 170.5 272.667 171.5 269 171.5H102V288H259C262.667 288 265.5 289.167 267.5 291.5C269.5 293.5 270.5 296.333 270.5 300V320C270.5 323.333 269.5 326.167 267.5 328.5C265.5 330.5 262.667 331.5 259 331.5H102V466.5C102 469.833 100.833 472.667 98.5 475C96.5 477 93.6667 478 90 478H65Z" fill="#ECE6EF"/>
<path d="M56.5 475L44.3519 485.413L44.7518 485.879L45.1863 486.314L56.5 475ZM56.5 131.5L67.8137 142.814L68.2482 142.379L68.6481 141.913L56.5 131.5ZM277.5 131.5L265.352 141.913L265.752 142.379L266.186 142.814L277.5 131.5ZM102 171.5V155.5H86V171.5H102ZM102 288H86V304H102V288ZM267.5 291.5L255.352 301.913L255.752 302.379L256.186 302.814L267.5 291.5ZM267.5 328.5L278.814 339.814L279.248 339.379L279.648 338.913L267.5 328.5ZM102 331.5V315.5H86V331.5H102ZM98.5 475L87.1863 463.686L87.1863 463.686L98.5 475ZM65 462C64.5945 462 64.8266 461.942 65.4501 462.162C66.1429 462.407 67.0199 462.893 67.8137 463.686L45.1863 486.314C51.0023 492.13 58.402 494 65 494V462ZM68.6481 464.587C68.9038 464.886 69.1653 465.311 69.3378 465.8C69.5039 466.27 69.5 466.55 69.5 466.5H37.5C37.5 473.304 39.6484 479.925 44.3519 485.413L68.6481 464.587ZM69.5 466.5V140H37.5V466.5H69.5ZM69.5 140C69.5 139.594 69.5579 139.827 69.3378 140.45C69.0933 141.143 68.6075 142.02 67.8137 142.814L45.1863 120.186C39.3703 126.002 37.5 133.402 37.5 140H69.5ZM68.6481 141.913C68.0088 142.658 67.1439 143.288 66.217 143.67C65.3611 144.022 64.8543 144 65 144V112C57.6546 112 49.9828 114.518 44.3519 121.087L68.6481 141.913ZM65 144H269V112H65V144ZM269 144C269.146 144 268.639 144.022 267.783 143.67C266.856 143.288 265.991 142.658 265.352 141.913L289.648 121.087C284.017 114.518 276.345 112 269 112V144ZM266.186 142.814C265.393 142.02 264.907 141.143 264.662 140.45C264.442 139.827 264.5 139.594 264.5 140H296.5C296.5 133.402 294.63 126.002 288.814 120.186L266.186 142.814ZM264.5 140V160H296.5V140H264.5ZM264.5 160C264.5 160.406 264.442 160.173 264.662 159.55C264.907 158.857 265.393 157.98 266.186 157.186L288.814 179.814C294.63 173.998 296.5 166.598 296.5 160H264.5ZM266.186 157.186C266.98 156.393 267.857 155.907 268.55 155.662C269.173 155.442 269.406 155.5 269 155.5V187.5C275.598 187.5 282.998 185.63 288.814 179.814L266.186 157.186ZM269 155.5H102V187.5H269V155.5ZM86 171.5V288H118V171.5H86ZM102 304H259V272H102V304ZM259 304C259.146 304 258.639 304.022 257.783 303.67C256.856 303.288 255.991 302.659 255.352 301.913L279.648 281.087C274.017 274.518 266.345 272 259 272V304ZM256.186 302.814C255.393 302.02 254.907 301.143 254.662 300.45C254.442 299.827 254.5 299.594 254.5 300H286.5C286.5 293.402 284.63 286.002 278.814 280.186L256.186 302.814ZM254.5 300V320H286.5V300H254.5ZM254.5 320C254.5 320.05 254.496 319.77 254.662 319.3C254.835 318.811 255.096 318.386 255.352 318.087L279.648 338.913C284.352 333.425 286.5 326.804 286.5 320H254.5ZM256.186 317.186C256.98 316.393 257.857 315.907 258.55 315.662C259.173 315.442 259.406 315.5 259 315.5V347.5C265.598 347.5 272.998 345.63 278.814 339.814L256.186 317.186ZM259 315.5H102V347.5H259V315.5ZM86 331.5V466.5H118V331.5H86ZM86 466.5C86 466.262 86.0503 465.713 86.3302 465.033C86.6114 464.35 86.9753 463.897 87.1863 463.686L109.814 486.314C115.182 480.946 118 474.028 118 466.5H86ZM87.1863 463.686C87.98 462.893 88.8571 462.407 89.5499 462.162C90.1734 461.942 90.4055 462 90 462V494C96.598 494 103.998 492.13 109.814 486.314L87.1863 463.686ZM90 462H65V494H90V462Z" fill="#161018" mask="url(#path-1-outside-1_6_12)"/>
</svg>
