<svg width="371" height="613" viewBox="0 0 371 613" fill="none" xmlns="http://www.w3.org/2000/svg">
<mask id="path-1-outside-1_6_15" maskUnits="userSpaceOnUse" x="37" y="112" width="260" height="382" fill="black">
<rect fill="white" x="37" y="112" width="260" height="382"/>
<path d="M65 478C61.3333 478 58.5 477 56.5 475C54.5 472.667 53.5 469.833 53.5 466.5V139.5C53.5 136.167 54.5 133.5 56.5 131.5C58.5 129.167 61.3333 128 65 128H91.5C94.8333 128 97.5 129.167 99.5 131.5C101.5 133.5 102.5 136.167 102.5 139.5V434.5H269C272.667 434.5 275.5 435.667 277.5 438C279.5 440 280.5 442.833 280.5 446.5V466.5C280.5 469.833 279.5 472.667 277.5 475C275.5 477 272.667 478 269 478H65Z"/>
</mask>
<path d="M65 478C61.3333 478 58.5 477 56.5 475C54.5 472.667 53.5 469.833 53.5 466.5V139.5C53.5 136.167 54.5 133.5 56.5 131.5C58.5 129.167 61.3333 128 65 128H91.5C94.8333 128 97.5 129.167 99.5 131.5C101.5 133.5 102.5 136.167 102.5 139.5V434.5H269C272.667 434.5 275.5 435.667 277.5 438C279.5 440 280.5 442.833 280.5 446.5V466.5C280.5 469.833 279.5 472.667 277.5 475C275.5 477 272.667 478 269 478H65Z" fill="#ECE6EF"/>
<path d="M56.5 475L44.3519 485.413L44.7518 485.879L45.1863 486.314L56.5 475ZM56.5 131.5L67.8137 142.814L68.2482 142.379L68.6481 141.913L56.5 131.5ZM99.5 131.5L87.3519 141.913L87.7518 142.379L88.1863 142.814L99.5 131.5ZM102.5 434.5H86.5V450.5H102.5V434.5ZM277.5 438L265.352 448.413L265.752 448.879L266.186 449.314L277.5 438ZM277.5 475L288.814 486.314L289.248 485.879L289.648 485.413L277.5 475ZM65 462C64.5945 462 64.8266 461.942 65.4501 462.162C66.1429 462.407 67.0199 462.893 67.8137 463.686L45.1863 486.314C51.0023 492.13 58.402 494 65 494V462ZM68.6481 464.587C68.9038 464.886 69.1653 465.311 69.3378 465.8C69.5039 466.27 69.5 466.55 69.5 466.5H37.5C37.5 473.304 39.6484 479.925 44.3519 485.413L68.6481 464.587ZM69.5 466.5V139.5H37.5V466.5H69.5ZM69.5 139.5C69.5 139.431 69.5091 139.877 69.2313 140.618C68.935 141.408 68.4403 142.187 67.8137 142.814L45.1863 120.186C39.6545 125.718 37.5 132.739 37.5 139.5H69.5ZM68.6481 141.913C68.0088 142.658 67.1439 143.288 66.217 143.67C65.3611 144.022 64.8543 144 65 144V112C57.6546 112 49.9828 114.518 44.3519 121.087L68.6481 141.913ZM65 144H91.5V112H65V144ZM91.5 144C91.2783 144 90.5489 143.954 89.5869 143.533C88.5905 143.098 87.8299 142.47 87.3519 141.913L111.648 121.087C106.329 114.882 99.0568 112 91.5 112V144ZM88.1863 142.814C87.5598 142.187 87.065 141.408 86.7687 140.618C86.4909 139.877 86.5 139.431 86.5 139.5H118.5C118.5 132.739 116.345 125.718 110.814 120.186L88.1863 142.814ZM86.5 139.5V434.5H118.5V139.5H86.5ZM102.5 450.5H269V418.5H102.5V450.5ZM269 450.5C269.146 450.5 268.639 450.522 267.783 450.17C266.856 449.788 265.991 449.159 265.352 448.413L289.648 427.587C284.017 421.018 276.345 418.5 269 418.5V450.5ZM266.186 449.314C265.393 448.52 264.907 447.643 264.662 446.95C264.442 446.327 264.5 446.094 264.5 446.5H296.5C296.5 439.902 294.63 432.502 288.814 426.686L266.186 449.314ZM264.5 446.5V466.5H296.5V446.5H264.5ZM264.5 466.5C264.5 466.55 264.496 466.27 264.662 465.8C264.835 465.311 265.096 464.886 265.352 464.587L289.648 485.413C294.352 479.925 296.5 473.304 296.5 466.5H264.5ZM266.186 463.686C266.98 462.893 267.857 462.407 268.55 462.162C269.173 461.942 269.406 462 269 462V494C275.598 494 282.998 492.13 288.814 486.314L266.186 463.686ZM269 462H65V494H269V462Z" fill="#161018" mask="url(#path-1-outside-1_6_15)"/>
</svg>
