<svg width="371" height="613" viewBox="0 0 371 613" fill="none" xmlns="http://www.w3.org/2000/svg">
<mask id="path-1-outside-1_6_18" maskUnits="userSpaceOnUse" x="37" y="112" width="296" height="382" fill="black">
<rect fill="white" x="37" y="112" width="296" height="382"/>
<path d="M65 478C61.3333 478 58.5 477 56.5 475C54.5 472.667 53.5 469.833 53.5 466.5V140C53.5 136.333 54.5 133.5 56.5 131.5C58.5 129.167 61.3333 128 65 128H187C224.667 128 254.5 136.833 276.5 154.5C298.5 172.167 309.5 198.333 309.5 233C309.5 258.667 303 279.667 290 296C277.333 312 260 323.167 238 329.5L315 462.5C316 464.5 316.5 466.333 316.5 468C316.5 470.667 315.333 473 313 475C311 477 308.667 478 306 478H282C276.333 478 272.167 476.5 269.5 473.5C266.833 470.5 264.5 467.5 262.5 464.5L190 337.5H102.5V466.5C102.5 469.833 101.333 472.667 99 475C97 477 94.1667 478 90.5 478H65ZM102.5 295H185C210 295 228.667 289.833 241 279.5C253.333 268.833 259.5 253.167 259.5 232.5C259.5 212.167 253.333 196.667 241 186C229 175.333 210.333 170 185 170H102.5V295Z"/>
</mask>
<path d="M65 478C61.3333 478 58.5 477 56.5 475C54.5 472.667 53.5 469.833 53.5 466.5V140C53.5 136.333 54.5 133.5 56.5 131.5C58.5 129.167 61.3333 128 65 128H187C224.667 128 254.5 136.833 276.5 154.5C298.5 172.167 309.5 198.333 309.5 233C309.5 258.667 303 279.667 290 296C277.333 312 260 323.167 238 329.5L315 462.5C316 464.5 316.5 466.333 316.5 468C316.5 470.667 315.333 473 313 475C311 477 308.667 478 306 478H282C276.333 478 272.167 476.5 269.5 473.5C266.833 470.5 264.5 467.5 262.5 464.5L190 337.5H102.5V466.5C102.5 469.833 101.333 472.667 99 475C97 477 94.1667 478 90.5 478H65ZM102.5 295H185C210 295 228.667 289.833 241 279.5C253.333 268.833 259.5 253.167 259.5 232.5C259.5 212.167 253.333 196.667 241 186C229 175.333 210.333 170 185 170H102.5V295Z" fill="#ECE6EF"/>
<path d="M56.5 475L44.3519 485.413L44.7518 485.879L45.1863 486.314L56.5 475ZM56.5 131.5L67.8137 142.814L68.2482 142.379L68.6481 141.913L56.5 131.5ZM276.5 154.5L266.482 166.975L266.482 166.975L276.5 154.5ZM290 296L277.481 286.036L277.468 286.052L277.455 286.069L290 296ZM238 329.5L233.574 314.124L213.891 319.791L224.153 337.517L238 329.5ZM315 462.5L329.311 455.345L329.092 454.907L328.847 454.483L315 462.5ZM313 475L302.587 462.852L302.121 463.252L301.686 463.686L313 475ZM269.5 473.5L281.459 462.87L281.459 462.87L269.5 473.5ZM262.5 464.5L248.605 472.432L248.88 472.914L249.187 473.375L262.5 464.5ZM190 337.5L203.895 329.568L199.29 321.5H190V337.5ZM102.5 337.5V321.5H86.5V337.5H102.5ZM99 475L87.6863 463.686L87.6863 463.686L99 475ZM102.5 295H86.5V311H102.5V295ZM241 279.5L251.276 291.764L251.372 291.684L251.466 291.602L241 279.5ZM241 186L230.37 197.959L230.451 198.031L230.534 198.102L241 186ZM102.5 170V154H86.5V170H102.5ZM65 462C64.5945 462 64.8266 461.942 65.4501 462.162C66.1429 462.407 67.0199 462.893 67.8137 463.686L45.1863 486.314C51.0023 492.13 58.402 494 65 494V462ZM68.6481 464.587C68.9038 464.886 69.1653 465.311 69.3378 465.8C69.5039 466.27 69.5 466.55 69.5 466.5H37.5C37.5 473.304 39.6484 479.925 44.3519 485.413L68.6481 464.587ZM69.5 466.5V140H37.5V466.5H69.5ZM69.5 140C69.5 139.594 69.5579 139.827 69.3378 140.45C69.0933 141.143 68.6075 142.02 67.8137 142.814L45.1863 120.186C39.3703 126.002 37.5 133.402 37.5 140H69.5ZM68.6481 141.913C68.0088 142.658 67.1439 143.288 66.217 143.67C65.3611 144.022 64.8543 144 65 144V112C57.6546 112 49.9828 114.518 44.3519 121.087L68.6481 141.913ZM65 144H187V112H65V144ZM187 144C222.245 144 248.148 152.253 266.482 166.975L286.518 142.025C260.852 121.414 227.088 112 187 112V144ZM266.482 166.975C283.84 180.915 293.5 201.961 293.5 233H325.5C325.5 194.705 313.16 163.419 286.518 142.025L266.482 166.975ZM293.5 233C293.5 255.901 287.747 273.138 277.481 286.036L302.519 305.964C318.253 286.196 325.5 261.432 325.5 233H293.5ZM277.455 286.069C267.109 299.137 252.774 308.597 233.574 314.124L242.426 344.876C267.226 337.736 287.557 324.863 302.545 305.931L277.455 286.069ZM224.153 337.517L301.153 470.517L328.847 454.483L251.847 321.483L224.153 337.517ZM300.689 469.655C300.798 469.873 300.76 469.844 300.689 469.585C300.616 469.318 300.5 468.771 300.5 468H332.5C332.5 463.15 331.06 458.842 329.311 455.345L300.689 469.655ZM300.5 468C300.5 466.907 300.761 465.7 301.314 464.595C301.839 463.546 302.419 462.996 302.587 462.852L323.413 487.148C328.691 482.624 332.5 476.075 332.5 468H300.5ZM301.686 463.686C301.962 463.411 302.541 462.932 303.447 462.544C304.372 462.147 305.278 462 306 462V494C313.188 494 319.515 491.112 324.314 486.314L301.686 463.686ZM306 462H282V494H306V462ZM282 462C281.282 462 280.774 461.952 280.444 461.902C280.116 461.852 280 461.805 280.045 461.821C280.095 461.839 280.296 461.919 280.581 462.106C280.872 462.298 281.178 462.555 281.459 462.87L257.541 484.13C264.331 491.768 273.703 494 282 494V462ZM281.459 462.87C279.229 460.362 277.36 457.945 275.813 455.625L249.187 473.375C251.64 477.055 254.438 480.638 257.541 484.13L281.459 462.87ZM276.395 456.568L203.895 329.568L176.105 345.432L248.605 472.432L276.395 456.568ZM190 321.5H102.5V353.5H190V321.5ZM86.5 337.5V466.5H118.5V337.5H86.5ZM86.5 466.5C86.5 466.262 86.5503 465.713 86.8302 465.033C87.1113 464.35 87.4753 463.897 87.6863 463.686L110.314 486.314C115.682 480.946 118.5 474.028 118.5 466.5H86.5ZM87.6863 463.686C88.4801 462.893 89.3571 462.407 90.0499 462.162C90.6734 461.942 90.9055 462 90.5 462V494C97.098 494 104.498 492.13 110.314 486.314L87.6863 463.686ZM90.5 462H65V494H90.5V462ZM102.5 311H185V279H102.5V311ZM185 311C211.781 311 234.843 305.532 251.276 291.764L230.724 267.236C222.491 274.134 208.219 279 185 279V311ZM251.466 291.602C268.213 277.118 275.5 256.475 275.5 232.5H243.5C243.5 249.858 238.454 260.548 230.534 267.398L251.466 291.602ZM275.5 232.5C275.5 208.763 268.156 188.332 251.466 173.898L230.534 198.102C238.511 205.001 243.5 215.571 243.5 232.5H275.5ZM251.63 174.041C235.415 159.628 212.097 154 185 154V186C208.57 186 222.586 191.039 230.37 197.959L251.63 174.041ZM185 154H102.5V186H185V154ZM86.5 170V295H118.5V170H86.5Z" fill="#161018" mask="url(#path-1-outside-1_6_18)"/>
</svg>
