<svg width="38" height="20" viewBox="0 0 38 20" fill="none" xmlns="http://www.w3.org/2000/svg">
<rect width="38" height="20" rx="2" fill="#ECE6EF"/>
<path d="M9.263 16.5C8.55367 16.5 7.97733 16.367 7.534 16.101C7.09067 15.8223 6.76767 15.436 6.565 14.942C6.36233 14.4353 6.261 13.84 6.261 13.156V8.14H4.779C4.65233 8.14 4.54467 8.102 4.456 8.026C4.38 7.93733 4.342 7.82967 4.342 7.703V7.057C4.342 6.93033 4.38 6.829 4.456 6.753C4.54467 6.66433 4.65233 6.62 4.779 6.62H6.261V3.447C6.261 3.32033 6.299 3.219 6.375 3.143C6.46367 3.05433 6.57133 3.01 6.698 3.01H7.591C7.71767 3.01 7.819 3.05433 7.895 3.143C7.98367 3.219 8.028 3.32033 8.028 3.447V6.62H10.384C10.5107 6.62 10.612 6.66433 10.688 6.753C10.7767 6.829 10.821 6.93033 10.821 7.057V7.703C10.821 7.82967 10.7767 7.93733 10.688 8.026C10.612 8.102 10.5107 8.14 10.384 8.14H8.028V13.023C8.028 13.6183 8.12933 14.087 8.332 14.429C8.53467 14.771 8.89567 14.942 9.415 14.942H10.574C10.7007 14.942 10.802 14.9863 10.878 15.075C10.9667 15.151 11.011 15.2523 11.011 15.379V16.063C11.011 16.1897 10.9667 16.2973 10.878 16.386C10.802 16.462 10.7007 16.5 10.574 16.5H9.263ZM15.5829 16.69C14.9495 16.69 14.3732 16.5633 13.8539 16.31C13.3345 16.0567 12.9165 15.7147 12.5999 15.284C12.2832 14.8533 12.1249 14.3657 12.1249 13.821C12.1249 12.947 12.4795 12.2503 13.1889 11.731C13.8982 11.2117 14.8229 10.8697 15.9629 10.705L18.7939 10.306V9.755C18.7939 9.147 18.6165 8.672 18.2619 8.33C17.9199 7.988 17.3562 7.817 16.5709 7.817C16.0009 7.817 15.5385 7.931 15.1839 8.159C14.8419 8.387 14.6012 8.67833 14.4619 9.033C14.3859 9.223 14.2529 9.318 14.0629 9.318H13.2079C13.0685 9.318 12.9609 9.28 12.8849 9.204C12.8215 9.11533 12.7899 9.014 12.7899 8.9C12.7899 8.71 12.8595 8.47567 12.9989 8.197C13.1509 7.91833 13.3789 7.646 13.6829 7.38C13.9869 7.114 14.3732 6.89233 14.8419 6.715C15.3232 6.525 15.9059 6.43 16.5899 6.43C17.3499 6.43 17.9895 6.53133 18.5089 6.734C19.0282 6.924 19.4335 7.18367 19.7249 7.513C20.0289 7.84233 20.2442 8.216 20.3709 8.634C20.5102 9.052 20.5799 9.47633 20.5799 9.907V16.063C20.5799 16.1897 20.5355 16.2973 20.4469 16.386C20.3709 16.462 20.2695 16.5 20.1429 16.5H19.2689C19.1295 16.5 19.0219 16.462 18.9459 16.386C18.8699 16.2973 18.8319 16.1897 18.8319 16.063V15.246C18.6672 15.474 18.4455 15.702 18.1669 15.93C17.8882 16.1453 17.5399 16.329 17.1219 16.481C16.7039 16.6203 16.1909 16.69 15.5829 16.69ZM15.9819 15.265C16.5012 15.265 16.9762 15.1573 17.4069 14.942C17.8375 14.714 18.1732 14.3657 18.4139 13.897C18.6672 13.4283 18.7939 12.8393 18.7939 12.13V11.598L16.5899 11.921C15.6905 12.0477 15.0129 12.263 14.5569 12.567C14.1009 12.8583 13.8729 13.232 13.8729 13.688C13.8729 14.0427 13.9742 14.3403 14.1769 14.581C14.3922 14.809 14.6582 14.98 14.9749 15.094C15.3042 15.208 15.6399 15.265 15.9819 15.265ZM28.1943 16.69C27.4343 16.69 26.8009 16.557 26.2943 16.291C25.7876 16.0123 25.3823 15.6703 25.0783 15.265V16.063C25.0783 16.1897 25.0339 16.2973 24.9453 16.386C24.8693 16.462 24.7679 16.5 24.6413 16.5H23.7673C23.6406 16.5 23.5329 16.462 23.4443 16.386C23.3683 16.2973 23.3303 16.1897 23.3303 16.063V3.447C23.3303 3.32033 23.3683 3.219 23.4443 3.143C23.5329 3.05433 23.6406 3.01 23.7673 3.01H24.6793C24.8186 3.01 24.9263 3.05433 25.0023 3.143C25.0783 3.219 25.1163 3.32033 25.1163 3.447V7.817C25.4329 7.42433 25.8383 7.095 26.3323 6.829C26.8389 6.563 27.4596 6.43 28.1943 6.43C28.9036 6.43 29.5053 6.55667 29.9993 6.81C30.5059 7.05067 30.9176 7.38633 31.2343 7.817C31.5636 8.24767 31.8106 8.73533 31.9753 9.28C32.1399 9.82467 32.2286 10.3947 32.2413 10.99C32.2539 11.1927 32.2603 11.3827 32.2603 11.56C32.2603 11.7373 32.2539 11.9273 32.2413 12.13C32.2286 12.738 32.1399 13.3143 31.9753 13.859C31.8106 14.4037 31.5636 14.8913 31.2343 15.322C30.9176 15.74 30.5059 16.0757 29.9993 16.329C29.5053 16.5697 28.9036 16.69 28.1943 16.69ZM27.7953 15.151C28.4539 15.151 28.9669 15.0117 29.3343 14.733C29.7143 14.4417 29.9866 14.068 30.1513 13.612C30.3159 13.1433 30.4109 12.643 30.4363 12.111C30.4489 11.7437 30.4489 11.3763 30.4363 11.009C30.4109 10.477 30.3159 9.983 30.1513 9.527C29.9866 9.05833 29.7143 8.68467 29.3343 8.406C28.9669 8.11467 28.4539 7.969 27.7953 7.969C27.1999 7.969 26.7059 8.10833 26.3133 8.387C25.9206 8.66567 25.6229 9.02033 25.4203 9.451C25.2303 9.88167 25.1289 10.3187 25.1163 10.762C25.1036 10.9647 25.0973 11.2117 25.0973 11.503C25.0973 11.7817 25.1036 12.0223 25.1163 12.225C25.1416 12.6937 25.2429 13.156 25.4203 13.612C25.6103 14.0553 25.8953 14.4227 26.2753 14.714C26.6679 15.0053 27.1746 15.151 27.7953 15.151Z" fill="#2C2031"/>
</svg>
