<svg width="371" height="613" viewBox="0 0 371 613" fill="none" xmlns="http://www.w3.org/2000/svg">
<mask id="path-1-outside-1_6_3" maskUnits="userSpaceOnUse" x="34" y="112" width="303" height="387" fill="black">
<rect fill="white" x="34" y="112" width="303" height="387"/>
<path d="M185.5 483C157.5 483 133.333 478 113 468C93 458 77.5 442.833 66.5 422.5C55.8333 401.833 50.5 375.333 50.5 343V140C50.5 136.333 51.5 133.5 53.5 131.5C55.5 129.167 58.3333 128 62 128H87.5C91.1667 128 94 129.167 96 131.5C98.3333 133.5 99.5 136.333 99.5 140V344C99.5 376.667 107.167 400.833 122.5 416.5C137.833 432.167 158.833 440 185.5 440C211.833 440 232.667 432.167 248 416.5C263.667 400.833 271.5 376.667 271.5 344V140C271.5 136.333 272.5 133.5 274.5 131.5C276.833 129.167 279.667 128 283 128H309C312.333 128 315 129.167 317 131.5C319.333 133.5 320.5 136.333 320.5 140V343C320.5 375.333 315 401.833 304 422.5C293.333 442.833 278 458 258 468C238 478 213.833 483 185.5 483Z"/>
</mask>
<path d="M185.5 483C157.5 483 133.333 478 113 468C93 458 77.5 442.833 66.5 422.5C55.8333 401.833 50.5 375.333 50.5 343V140C50.5 136.333 51.5 133.5 53.5 131.5C55.5 129.167 58.3333 128 62 128H87.5C91.1667 128 94 129.167 96 131.5C98.3333 133.5 99.5 136.333 99.5 140V344C99.5 376.667 107.167 400.833 122.5 416.5C137.833 432.167 158.833 440 185.5 440C211.833 440 232.667 432.167 248 416.5C263.667 400.833 271.5 376.667 271.5 344V140C271.5 136.333 272.5 133.5 274.5 131.5C276.833 129.167 279.667 128 283 128H309C312.333 128 315 129.167 317 131.5C319.333 133.5 320.5 136.333 320.5 140V343C320.5 375.333 315 401.833 304 422.5C293.333 442.833 278 458 258 468C238 478 213.833 483 185.5 483Z" fill="#ECE6EF"/>
<path d="M113 468L105.845 482.311L105.892 482.334L105.939 482.358L113 468ZM66.5 422.5L52.2821 429.838L52.3534 429.976L52.4273 430.113L66.5 422.5ZM53.5 131.5L64.8137 142.814L65.2482 142.379L65.6481 141.913L53.5 131.5ZM96 131.5L83.8519 141.913L84.6529 142.847L85.5874 143.648L96 131.5ZM122.5 416.5L111.065 427.691L111.065 427.691L122.5 416.5ZM248 416.5L236.686 405.186L236.625 405.247L236.565 405.309L248 416.5ZM274.5 131.5L285.814 142.814L285.814 142.814L274.5 131.5ZM317 131.5L304.852 141.913L305.653 142.847L306.587 143.648L317 131.5ZM304 422.5L289.876 414.982L289.854 415.025L289.831 415.067L304 422.5ZM258 468L250.845 453.689L250.845 453.689L258 468ZM185.5 467C159.383 467 137.741 462.337 120.061 453.642L105.939 482.358C128.926 493.663 155.617 499 185.5 499V467ZM120.155 453.689C103.198 445.211 90.0657 432.435 80.5727 414.887L52.4273 430.113C64.9343 453.232 82.8016 470.789 105.845 482.311L120.155 453.689ZM80.7179 415.162C71.5887 397.474 66.5 373.721 66.5 343H34.5C34.5 376.946 40.078 406.193 52.2821 429.838L80.7179 415.162ZM66.5 343V140H34.5V343H66.5ZM66.5 140C66.5 139.594 66.5579 139.827 66.3378 140.45C66.0933 141.143 65.6075 142.02 64.8137 142.814L42.1863 120.186C36.3703 126.002 34.5 133.402 34.5 140H66.5ZM65.6481 141.913C65.0088 142.658 64.1439 143.288 63.217 143.67C62.3611 144.022 61.8543 144 62 144V112C54.6546 112 46.9828 114.518 41.3519 121.087L65.6481 141.913ZM62 144H87.5V112H62V144ZM87.5 144C87.6457 144 87.1389 144.022 86.283 143.67C85.3561 143.288 84.4912 142.658 83.8519 141.913L108.148 121.087C102.517 114.518 94.8454 112 87.5 112V144ZM85.5874 143.648C84.8415 143.009 84.2118 142.144 83.8302 141.217C83.4777 140.361 83.5 139.854 83.5 140H115.5C115.5 132.655 112.982 124.983 106.413 119.352L85.5874 143.648ZM83.5 140V344H115.5V140H83.5ZM83.5 344C83.5 378.825 91.6424 407.846 111.065 427.691L133.935 405.309C122.691 393.82 115.5 374.508 115.5 344H83.5ZM111.065 427.691C130.04 447.079 155.526 456 185.5 456V424C162.14 424 145.626 417.254 133.935 405.309L111.065 427.691ZM185.5 456C215.207 456 240.498 447.04 259.435 427.691L236.565 405.309C224.835 417.294 208.46 424 185.5 424V456ZM259.314 427.814C279.15 407.978 287.5 378.907 287.5 344H255.5C255.5 374.426 248.184 393.689 236.686 405.186L259.314 427.814ZM287.5 344V140H255.5V344H287.5ZM287.5 140C287.5 139.594 287.558 139.827 287.338 140.45C287.093 141.143 286.607 142.02 285.814 142.814L263.186 120.186C257.37 126.002 255.5 133.402 255.5 140H287.5ZM285.814 142.814C285.603 143.025 285.15 143.389 284.467 143.67C283.787 143.95 283.238 144 283 144V112C275.472 112 268.554 114.818 263.186 120.186L285.814 142.814ZM283 144H309V112H283V144ZM309 144C308.778 144 308.049 143.954 307.087 143.533C306.09 143.098 305.33 142.47 304.852 141.913L329.148 121.087C323.829 114.882 316.557 112 309 112V144ZM306.587 143.648C305.842 143.009 305.212 142.144 304.83 141.217C304.478 140.361 304.5 139.854 304.5 140H336.5C336.5 132.655 333.982 124.983 327.413 119.352L306.587 143.648ZM304.5 140V343H336.5V140H304.5ZM304.5 343C304.5 373.659 299.265 397.343 289.876 414.982L318.124 430.018C330.735 406.324 336.5 377.007 336.5 343H304.5ZM289.831 415.067C280.679 432.515 267.758 445.232 250.845 453.689L265.155 482.311C288.242 470.768 305.988 453.152 318.169 429.933L289.831 415.067ZM250.845 453.689C233.579 462.322 211.995 467 185.5 467V499C215.672 499 242.421 493.678 265.155 482.311L250.845 453.689Z" fill="#161018" mask="url(#path-1-outside-1_6_3)"/>
</svg>
